<?xml version="1.0" encoding="utf-8"?>
<!-- Generator: Adobe Illustrator 16.0.0, SVG Export Plug-In . SVG Version: 6.00 Build 0)  -->
<!DOCTYPE svg PUBLIC "-//W3C//DTD SVG 1.1//EN" "http://www.w3.org/Graphics/SVG/1.1/DTD/svg11.dtd">
<svg version="1.1" id="LOGO" xmlns="http://www.w3.org/2000/svg" xmlns:xlink="http://www.w3.org/1999/xlink" x="0px" y="0px"
	 width="566.93px" height="403.208px" viewBox="137.48 96.033 566.93 403.208"
	 enable-background="new 137.48 96.033 566.93 403.208" xml:space="preserve">
<g>
	<g>
		<path fill="#0078BF" d="M476.054,214.638c-0.58-5.098-2.627-9.619-6.262-13.841c-3.398-4.102-9.379-7.638-18.301-10.811
			c-4.137-1.502-7.707-2.268-10.594-2.268c-4.143,0-7.072,1.522-8.914,4.622c-2.918,5.11-3.061,11.613,0.846,17.693
			c1.049,1.697,3.523,5.6,5.529,7.9c2.662,3.062,4.012,7.208,5.262,11.442c0.893,4.055,1.5,8.716,0.902,12.901
			c-0.771,4.332-5.264,14.286-7.631,15.865c-7.439,4.985-7,12.829-6.482,16.75c1.012,7.91,4.516,12.778,10.25,14.929
			c9.471,3.304,16.193,1.182,19.936-6.327c3.852-7.828,7.111-18.467,9.713-31.627c1.387-7.408,2.883-14.165,4.434-20.082
			C476.197,225.652,476.638,219.881,476.054,214.638"/>
		<path fill="#0078BF" d="M475.3,199.814c2.146,0.538,3.453-0.545,3.865-3.264c0.258-1.629-0.75-2.795-2.977-3.453
			c-0.357-0.056-0.711-0.085-1.027-0.085c-1.98,0-3.041,1.113-3.156,3.293C472.005,198.167,473.021,199.248,475.3,199.814"/>
		<path fill="#0078BF" d="M469.312,185.104c-0.879-0.435-1.65-0.657-2.32-0.657c-1.432,0-2.445,1.019-3.105,3.088
			c-0.566,2.403,0.279,4.105,2.449,4.914c2.445,0.96,4.199,0.063,5.469-2.764C472.609,187.666,471.828,186.214,469.312,185.104"/>
		<path fill="#0078BF" d="M457.781,177.695c-1.75,0-2.758,1.197-3.186,3.773c-0.549,2.854,0.424,4.656,2.996,5.666
			c2.6,0.681,4.211-0.684,5.055-4.344c0.656-2.381-0.301-3.893-3.027-4.75C458.933,177.812,458.318,177.695,457.781,177.695"/>
		<path fill="#0078BF" d="M434.802,165.514c-2.246,0.062-3.373,0.669-4.32,1.828c-1.064,1.274-1.861,3.332-1.404,6.023l0.762,5.55
			c0.697,3.342,3.105,4.957,6.719,4.957c2.473,0,5.281-1.712,5.422-5.316v-7.184c-0.719-3.844-2.912-5.864-6.699-5.864
			C435.121,165.508,434.957,165.508,434.802,165.514"/>
		<path fill="#0078BF" d="M447.843,183.289c2.715,0.543,4.5-1.248,5.355-5.302c0.275-3.389-0.826-5.143-3.574-5.697
			c-0.316-0.067-0.629-0.104-0.924-0.104c-0.826,0-1.584,0.265-2.205,0.792c-1.018,0.721-1.668,2.433-1.936,5.068
			C444.281,181.12,445.382,182.882,447.843,183.289"/>
		<path fill="#0078BF" d="M404.81,229.037c2.003-2.295,4.491-6.203,5.528-7.901c3.91-6.072,3.763-12.578,0.848-17.683
			c-1.854-3.112-4.769-4.63-8.911-4.63c-2.886,0-6.449,0.769-10.6,2.276c-8.92,3.159-14.902,6.7-18.3,10.803
			c-3.635,4.221-5.684,8.751-6.263,13.841c-0.587,5.249-0.144,11.018,1.321,17.148c1.547,5.913,3.041,12.674,4.426,20.08
			c2.602,13.159,5.872,23.803,9.709,31.636c3.752,7.504,10.462,9.618,19.945,6.318c5.729-2.146,9.227-7.01,10.253-14.93
			c0.509-3.921,0.943-11.768-6.495-16.743c-2.369-1.585-6.86-11.533-7.625-15.867c-0.603-4.188,0.006-8.852,0.9-12.9
			C400.807,236.243,402.141,232.105,404.81,229.037"/>
		<path fill="#0078BF" d="M367.871,210.921c2.271-0.565,3.287-1.651,3.287-3.508c-0.111-2.181-1.172-3.296-3.153-3.296
			c-0.324,0-0.665,0.029-1.028,0.087c-2.229,0.655-3.232,1.824-2.971,3.451C364.417,210.374,365.716,211.457,367.871,210.921"/>
		<path fill="#0078BF" d="M376.831,203.556c2.177-0.81,3.017-2.507,2.455-4.919c-0.665-2.07-1.681-3.082-3.103-3.082
			c-0.675,0-1.455,0.214-2.323,0.657c-2.519,1.111-3.298,2.566-2.499,4.586C372.638,203.619,374.39,204.51,376.831,203.556"/>
		<path fill="#0078BF" d="M385.572,198.233c2.576-1.006,3.542-2.808,2.997-5.66c-0.428-2.572-1.441-3.776-3.178-3.776
			c-0.54,0-1.154,0.118-1.838,0.347c-2.729,0.863-3.69,2.371-3.032,4.749C381.371,197.551,382.979,198.92,385.572,198.233"/>
		<path fill="#0078BF" d="M407.886,176.615c-3.78,0-5.978,2.02-6.694,5.864v7.18c0.139,3.608,2.945,5.32,5.423,5.32
			c3.604,0,6.021-1.615,6.714-4.957l0.768-5.55c0.454-2.691-0.345-4.747-1.406-6.025c-0.948-1.161-2.073-1.764-4.318-1.824
			C408.207,176.615,408.048,176.615,407.886,176.615"/>
		<path fill="#0078BF" d="M395.334,194.392c2.449-0.403,3.548-2.167,3.271-5.243c-0.271-2.633-0.92-4.344-1.932-5.064
			c-0.619-0.525-1.379-0.793-2.203-0.793c-0.292,0-0.608,0.034-0.925,0.107c-2.752,0.553-3.852,2.308-3.57,5.697
			C390.821,193.149,392.611,194.937,395.334,194.392"/>
	</g>
	<g>
		<path fill="#0078BF" d="M356.298,327.376c-2.358,0-4.511,0.424-6.461,1.246c-1.951,0.836-3.624,1.965-5.017,3.4
			c-1.403,1.449-2.492,3.123-3.282,5.027c-0.782,1.902-1.175,3.949-1.175,6.133v0.087c0,2.185,0.393,4.229,1.175,6.155
			c0.79,1.922,1.879,3.58,3.282,4.992c1.393,1.418,3.052,2.529,4.975,3.344c1.915,0.813,3.994,1.227,6.243,1.227
			c1.479,0,2.819-0.132,4.01-0.369c1.199-0.254,2.296-0.615,3.3-1.1c1.009-0.484,1.925-1.049,2.767-1.723
			c0.847-0.668,1.657-1.422,2.446-2.269l-4.275-4.321c-1.196,1.104-2.391,1.978-3.598,2.625c-1.215,0.635-2.688,0.955-4.436,0.955
			c-1.308,0-2.51-0.254-3.596-0.763c-1.103-0.521-2.03-1.2-2.798-2.079c-0.771-0.867-1.377-1.891-1.813-3.052
			c-0.436-1.167-0.659-2.401-0.659-3.711V343.1c0-1.317,0.224-2.544,0.659-3.699c0.436-1.142,1.05-2.153,1.83-3.026
			c0.783-0.873,1.726-1.561,2.82-2.053c1.089-0.492,2.279-0.746,3.556-0.746c1.546,0,2.929,0.313,4.167,0.918
			c1.236,0.609,2.455,1.45,3.649,2.531l4.278-4.926c-0.698-0.703-1.457-1.35-2.271-1.93c-0.811-0.574-1.699-1.074-2.666-1.479
			c-0.957-0.412-2.026-0.728-3.207-0.965C359.023,327.498,357.719,327.376,356.298,327.376"/>
		<path fill="#0078BF" d="M406.977,358.462l-13.091-30.777h-6.204l-13.089,30.777h6.853l2.792-6.85h12.92l2.796,6.85H406.977z
			 M386.636,345.667l4.064-9.906l4.057,9.906H386.636z"/>
		<polygon fill="#0078BF" points="436.933,352.396 421.689,352.396 421.689,327.896 414.97,327.896 414.97,358.458 436.933,358.458 
					"/>
		<polygon fill="#0078BF" points="445.271,327.903 445.271,358.462 467.228,358.462 467.228,352.396 451.992,352.396 
			451.992,327.903 		"/>
		<polygon fill="#0078BF" points="475.558,358.458 498.789,358.458 498.789,352.475 482.199,352.475 482.199,346.068 
			496.593,346.068 496.593,340.083 482.199,340.083 482.199,333.884 498.562,333.884 498.562,327.896 475.558,327.896 		"/>
	</g>
	<g>
		<polygon fill="#0078BF" points="149.742,385.662 137.48,385.662 137.48,441.382 177.523,441.382 177.523,430.242 149.742,430.242 
					"/>
		<path fill="#0078BF" d="M209.84,385.266l-23.88,56.12h12.5l5.096-12.504h23.553l5.098,12.504h12.812l-23.876-56.12H209.84z
			 M207.929,418.06l7.402-18.074l7.402,18.074H207.929z"/>
		<path fill="#0078BF" d="M279.414,408.031c-9.635-2.469-12.018-3.664-12.018-7.322v-0.16c0-2.715,2.466-4.856,7.158-4.856
			c4.697,0,9.555,2.067,14.488,5.493l6.37-9.23c-5.648-4.537-12.573-7.09-20.691-7.09c-11.389,0-19.509,6.688-19.509,16.801v0.153
			c0,11.069,7.246,14.179,18.466,17.031c9.313,2.39,11.231,3.987,11.231,7.089v0.158c0,3.271-3.028,5.256-8.043,5.256
			c-6.366,0-11.621-2.633-16.635-6.764l-7.251,8.68c6.691,5.971,15.213,8.91,23.65,8.91c12.016,0,20.454-6.211,20.454-17.271v-0.16
			C297.083,415.035,290.713,410.975,279.414,408.031"/>
		<polygon fill="#0078BF" points="395.318,441.382 395.318,385.662 382.098,385.662 367.451,409.225 352.808,385.662 
			339.587,385.662 339.587,441.382 351.615,441.382 351.615,405.236 367.137,428.804 367.451,428.804 383.138,405.009 
			383.138,441.382 		"/>
		<path fill="#0078BF" d="M469.417,413.516v-0.151c0-15.84-12.33-28.662-29.523-28.662s-29.687,12.975-29.687,28.813v0.161
			c0,15.842,12.335,28.664,29.525,28.664C456.929,442.341,469.417,429.367,469.417,413.516 M456.603,413.677
			c0,9.563-6.838,17.357-16.709,17.357c-9.869,0-16.873-7.959-16.873-17.52v-0.15c0-9.559,6.85-17.355,16.713-17.355
			c9.867,0,16.869,7.957,16.869,17.507V413.677z"/>
		<polygon fill="#0078BF" points="521.728,419.968 495.613,385.662 484.318,385.662 484.318,441.386 496.414,441.386 
			496.414,405.955 523.398,441.386 533.828,441.386 533.828,385.662 521.728,385.662 		"/>
		<path fill="#0078BF" d="M571,421.564c0,6.441-2.867,9.23-7.48,9.23c-3.895,0-7.016-2.072-10.195-5.572l-7.719,8.594
			c3.82,4.545,9.563,8.357,18.232,8.357c6.045,0,11.068-1.742,14.486-5.17c3.346-3.34,5.25-8.281,5.25-14.885v-36.461H571V421.564z"
			/>
		<path fill="#0078BF" d="M617.167,385.266l-23.879,56.12h12.5l5.1-12.504h23.561l5.092,12.504h12.811l-23.875-56.12H617.167z
			 M615.261,418.06l7.406-18.074l7.402,18.074H615.261z"/>
		<path fill="#0078BF" d="M686.744,408.031c-9.627-2.469-12.018-3.664-12.018-7.322v-0.16c0-2.715,2.469-4.856,7.156-4.856
			c4.697,0,9.561,2.067,14.494,5.493l6.369-9.23c-5.654-4.537-12.576-7.09-20.693-7.09c-11.387,0-19.512,6.688-19.512,16.801v0.153
			c0,11.069,7.256,14.179,18.473,17.031c9.311,2.39,11.225,3.987,11.225,7.089v0.158c0,3.271-3.025,5.256-8.037,5.256
			c-6.371,0-11.629-2.633-16.639-6.764l-7.246,8.68c6.688,5.971,15.207,8.91,23.643,8.91c12.018,0,20.451-6.211,20.451-17.271v-0.16
			C704.41,415.035,698.05,410.975,686.744,408.031"/>
	</g>
	<g>
		<path fill="#0078BF" d="M361.075,476.085h-5.078v22.924h5.052c2.379,0,4.068-0.596,5.066-1.803
			c1.002-1.191,1.504-3.051,1.504-5.568v-9.006c0-2.4-0.49-4.09-1.475-5.07C365.157,476.582,363.468,476.085,361.075,476.085
			 M364.347,490.816v0.5c0,0.684-0.006,1.172-0.012,1.5c-0.006,0.316-0.042,0.719-0.091,1.215c-0.063,0.492-0.153,0.861-0.294,1.096
			c-0.133,0.238-0.323,0.484-0.56,0.748c-0.237,0.262-0.553,0.432-0.937,0.539c-0.387,0.09-0.845,0.139-1.379,0.139h-1.802v-18.006
			h1.733c0.363,0,0.686,0.02,0.979,0.078c0.288,0.043,0.543,0.096,0.754,0.172c0.223,0.07,0.413,0.186,0.583,0.328
			c0.159,0.15,0.304,0.289,0.421,0.43c0.117,0.135,0.206,0.328,0.284,0.574c0.075,0.246,0.141,0.457,0.183,0.652
			c0.04,0.205,0.065,0.463,0.091,0.801c0.021,0.342,0.034,0.627,0.04,0.873c0,0.254,0.006,0.58,0.006,0.996L364.347,490.816
			L364.347,490.816z"/>
		<polygon fill="#0078BF" points="371.799,499.009 380.8,499.009 380.8,496.552 375.067,496.552 375.067,488.373 379.163,488.373 
			379.163,485.912 375.067,485.912 375.067,478.546 380.8,478.546 380.8,476.085 371.799,476.085 		"/>
		<path fill="#0078BF" d="M389.271,478.546c0.976,0,1.718,0.313,2.229,0.943c0.508,0.619,0.83,1.453,0.982,2.496
			c0.03,0.295,0.052,0.5,0.058,0.646l3.282-0.822c-0.038-0.313-0.065-0.561-0.097-0.736c-0.258-1.664-0.934-2.938-2.025-3.857
			c-1.1-0.904-2.572-1.354-4.432-1.354c-1.733,0-3.119,0.486-4.166,1.492c-1.049,1-1.578,2.346-1.578,4.027
			c0,1.162,0.224,2.191,0.676,3.102c0.44,0.906,1.042,1.656,1.798,2.246l4.088,3.27c0.385,0.309,0.685,0.563,0.907,0.777
			c0.224,0.219,0.472,0.496,0.744,0.834c0.27,0.35,0.474,0.723,0.608,1.139c0.136,0.41,0.193,0.857,0.193,1.35
			c0,1.637-0.82,2.453-2.453,2.453c-2.02,0-3.11-1.635-3.271-4.91l-3.278,0.822c0.133,2.092,0.738,3.746,1.824,4.961
			c1.09,1.211,2.663,1.813,4.725,1.813c1.744,0,3.146-0.473,4.173-1.42c1.042-0.939,1.563-2.268,1.563-3.939
			c0-2.459-1.094-4.559-3.282-6.328l-4.088-3.271c-1.091-0.877-1.636-1.957-1.636-3.238c0-0.787,0.208-1.396,0.636-1.838
			C387.88,478.771,388.488,478.546,389.271,478.546"/>
		<path fill="#0078BF" d="M404.605,476.085h-5.082v22.924h5.055c2.377,0,4.07-0.596,5.068-1.803
			c0.998-1.191,1.504-3.051,1.504-5.568v-9.006c0-2.4-0.492-4.09-1.478-5.07S406.992,476.085,404.605,476.085 M407.873,490.816v0.5
			c0,0.684-0.006,1.172-0.012,1.5c-0.006,0.316-0.042,0.719-0.09,1.215c-0.063,0.492-0.154,0.861-0.293,1.096
			c-0.132,0.238-0.325,0.484-0.559,0.748c-0.24,0.262-0.554,0.432-0.939,0.539c-0.382,0.09-0.847,0.139-1.375,0.139h-1.804v-18.006
			h1.732c0.364,0,0.686,0.02,0.978,0.078c0.286,0.043,0.546,0.096,0.754,0.172c0.228,0.07,0.416,0.186,0.582,0.328
			c0.16,0.15,0.307,0.289,0.421,0.43c0.119,0.135,0.21,0.328,0.288,0.574s0.14,0.457,0.181,0.652
			c0.044,0.205,0.071,0.463,0.089,0.801c0.023,0.342,0.036,0.627,0.042,0.873c0,0.254,0.006,0.58,0.006,0.996L407.873,490.816
			L407.873,490.816z"/>
		<polygon fill="#0078BF" points="415.323,499.009 424.332,499.009 424.332,496.552 418.599,496.552 418.599,488.373 
			422.691,488.373 422.691,485.912 418.599,485.912 418.599,478.546 424.332,478.546 424.332,476.085 415.323,476.085 		"/>
		<path fill="#0078BF" d="M433.453,478.546v2.447h2.453v18.01h3.277v-22.91h-2.457C436.191,477.14,435.095,477.958,433.453,478.546"
			/>
		<path fill="#0078BF" d="M453.904,478.994c-0.311-0.639-0.676-1.189-1.119-1.654c-0.428-0.457-0.969-0.822-1.615-1.084
			c-0.631-0.262-1.35-0.393-2.131-0.393c-1.008,0-1.891,0.199-2.637,0.594c-0.754,0.395-1.346,0.949-1.793,1.652
			c-0.441,0.711-0.771,1.516-0.98,2.398c-0.219,0.898-0.32,1.875-0.32,2.949c0,0.98,0.082,1.859,0.246,2.625
			c0.154,0.754,0.416,1.447,0.785,2.051c0.357,0.607,0.865,1.068,1.521,1.398c0.662,0.316,1.443,0.467,2.363,0.467
			c1.529,0,2.619-0.547,3.268-1.627v3.27c0,3.275-0.816,4.91-2.453,4.91c-0.928,0-1.574-0.27-1.924-0.816
			c-0.357-0.549-0.535-1.365-0.535-2.461h-3.271c0,1.891,0.5,3.357,1.48,4.404c0.992,1.037,2.4,1.561,4.25,1.561
			c0.857,0,1.623-0.15,2.289-0.451c0.676-0.291,1.223-0.695,1.646-1.211c0.422-0.521,0.777-1.131,1.053-1.854
			c0.273-0.742,0.461-1.496,0.58-2.295c0.1-0.803,0.158-1.666,0.158-2.607v-7.361c0-0.842-0.066-1.631-0.211-2.369
			C454.429,480.339,454.203,479.646,453.904,478.994 M451.492,485.912c-0.592,1.092-1.41,1.639-2.453,1.639
			c-0.238,0-0.461-0.02-0.664-0.063c-0.213-0.049-0.383-0.111-0.539-0.219c-0.154-0.111-0.293-0.205-0.412-0.305
			c-0.115-0.111-0.227-0.246-0.311-0.449c-0.086-0.18-0.166-0.35-0.227-0.488c-0.055-0.143-0.115-0.354-0.139-0.611
			c-0.055-0.242-0.078-0.453-0.104-0.623c-0.02-0.162-0.035-0.404-0.047-0.709c-0.008-0.307-0.02-0.541-0.02-0.711v-0.73
			c0-0.535,0.039-1.035,0.115-1.488c0.078-0.455,0.199-0.896,0.385-1.307c0.17-0.408,0.424-0.725,0.758-0.955
			c0.326-0.23,0.734-0.346,1.201-0.346c0.469,0,0.867,0.115,1.203,0.346c0.334,0.23,0.588,0.547,0.754,0.955
			c0.176,0.408,0.307,0.844,0.391,1.303c0.074,0.441,0.105,0.949,0.105,1.492v3.27H451.492z"/>
		<path fill="#0078BF" d="M467.103,486.908c0.738-0.557,1.271-1.234,1.617-2.045c0.354-0.801,0.516-1.82,0.516-3.039
			c0-1.895-0.439-3.357-1.342-4.395c-0.904-1.053-2.248-1.574-4.041-1.574s-3.15,0.521-4.055,1.563
			c-0.896,1.035-1.359,2.504-1.359,4.404c0,1.211,0.184,2.227,0.529,3.037c0.35,0.809,0.896,1.49,1.627,2.047
			c-0.869,0.553-1.5,1.27-1.895,2.141c-0.393,0.867-0.586,1.996-0.586,3.424c0,2.186,0.447,3.865,1.363,5.025
			c0.898,1.162,2.361,1.746,4.375,1.746c2.008,0,3.461-0.584,4.361-1.746c0.9-1.16,1.365-2.842,1.365-5.025
			c0-1.4-0.203-2.539-0.592-3.412C468.593,488.189,467.97,487.468,467.103,486.908 M463.853,478.546c1.365,0,2.049,1.09,2.049,3.277
			c0,0.508-0.023,0.949-0.07,1.32c-0.045,0.387-0.137,0.75-0.275,1.123c-0.135,0.373-0.35,0.654-0.627,0.85
			c-0.285,0.199-0.648,0.295-1.074,0.295c-0.438,0-0.795-0.096-1.074-0.295c-0.295-0.193-0.5-0.477-0.637-0.844
			c-0.141-0.361-0.238-0.73-0.281-1.125c-0.053-0.371-0.074-0.816-0.074-1.324C461.787,479.636,462.468,478.546,463.853,478.546
			 M466.263,493.738c-0.029,0.354-0.092,0.711-0.182,1.096c-0.105,0.381-0.234,0.682-0.41,0.916c-0.17,0.219-0.408,0.426-0.719,0.58
			c-0.301,0.146-0.674,0.223-1.1,0.223c-0.428,0-0.785-0.076-1.1-0.215c-0.305-0.158-0.551-0.35-0.713-0.576
			c-0.184-0.232-0.322-0.535-0.418-0.908c-0.098-0.389-0.166-0.75-0.191-1.105c-0.025-0.35-0.047-0.775-0.047-1.275
			c0-0.555,0.039-1.043,0.111-1.473c0.061-0.436,0.174-0.838,0.361-1.229c0.172-0.387,0.43-0.691,0.766-0.9
			c0.33-0.219,0.746-0.322,1.23-0.322c0.496,0,0.896,0.104,1.23,0.322c0.328,0.209,0.578,0.516,0.762,0.908
			c0.162,0.385,0.285,0.801,0.35,1.234c0.07,0.434,0.1,0.912,0.1,1.459C466.294,492.972,466.287,493.392,466.263,493.738"/>
		<path fill="#0078BF" d="M483.285,485.015c0.58-0.834,0.867-1.896,0.867-3.203c0-1.873-0.484-3.346-1.467-4.391
			c-0.979-1.039-2.4-1.559-4.258-1.559c-1.854,0-3.258,0.52-4.254,1.566c-0.977,1.057-1.477,2.518-1.477,4.381v0.822h3.273
			c0-0.512,0.008-0.938,0.051-1.307c0.027-0.369,0.088-0.734,0.189-1.104c0.096-0.377,0.23-0.678,0.4-0.9
			c0.164-0.227,0.4-0.412,0.711-0.561c0.311-0.15,0.676-0.217,1.104-0.217c0.916,0,1.561,0.273,1.912,0.824
			c0.367,0.551,0.541,1.365,0.541,2.439c0,1.213-0.246,2.057-0.734,2.553c-0.5,0.488-1.35,0.734-2.535,0.734v3.273
			c1.172,0,2.006,0.35,2.514,1.059c0.496,0.703,0.758,1.721,0.758,3.025c0,0.523-0.016,0.949-0.039,1.311
			c-0.037,0.367-0.098,0.742-0.199,1.109c-0.1,0.383-0.223,0.676-0.396,0.906c-0.176,0.227-0.414,0.408-0.715,0.555
			c-0.311,0.148-0.68,0.215-1.104,0.215c-0.43,0-0.793-0.066-1.104-0.215c-0.311-0.145-0.549-0.328-0.711-0.555
			c-0.17-0.23-0.307-0.523-0.4-0.906c-0.104-0.367-0.164-0.742-0.191-1.109c-0.043-0.359-0.051-0.787-0.051-1.311h-3.273v0.826
			c0,1.881,0.492,3.35,1.469,4.389c0.988,1.045,2.4,1.568,4.262,1.568c1.984,0,3.432-0.596,4.355-1.773
			c0.916-1.191,1.369-2.857,1.369-5.01c0-1.496-0.281-2.746-0.828-3.723c-0.564-0.977-1.371-1.646-2.441-2.004
			C481.904,486.416,482.703,485.847,483.285,485.015"/>
	</g>
	<g>
		<path fill="#0078BF" d="M290.563,210.884l-9.496-5.563l3.098-5.299c4.166-7.096,3.711-15.014-3.616-19.308l-0.091-0.054
			c-6.463-3.79-13.617-1.845-18.039,5.695l-7.579,12.935l31.636,18.558L290.563,210.884z M278.11,196.169l-3.236,5.515l-9.674-5.676
			l3.149-5.376c2.042-3.48,4.995-4.669,8.112-2.842l0.089,0.06C279.261,189.433,280.148,192.689,278.11,196.169"/>
		<path fill="#0078BF" d="M318.834,148.429c-7.257-7.466-18.952-7.865-27.06,0.014c-8.116,7.878-8.07,19.721-0.818,27.2l0.076,0.074
			c7.255,7.471,18.951,7.868,27.056-0.014c8.12-7.876,8.07-19.717,0.815-27.201L318.834,148.429z M312.988,170.3
			c-4.654,4.515-11.605,3.969-15.98-0.538l-0.068-0.069c-4.381-4.508-4.729-11.327-0.071-15.85
			c4.661-4.521,11.619-3.977,15.987,0.542l0.072,0.067C317.305,158.962,317.646,165.778,312.988,170.3"/>
		<path fill="#0078BF" d="M359.539,125.683l-0.05-0.102c-4.786-9.14-15.524-12.452-25.731-7.106l-12.679,6.638l17.024,32.501
			l12.676-6.634C360.996,145.626,364.33,134.827,359.539,125.683 M341.877,147.414l-10.266-19.584l5.524-2.896
			c5.851-3.068,11.908-1.099,14.934,4.661l0.045,0.096c3.014,5.749,1.133,11.77-4.717,14.837L341.877,147.414z"/>
		<path fill="#0078BF" d="M369.939,121.883c2.032,10.212,11.637,16.896,22.729,14.685c11.095-2.208,17.491-12.177,15.457-22.396
			l-0.024-0.104c-2.031-10.22-11.637-16.903-22.729-14.703c-11.095,2.207-17.491,12.186-15.457,22.406L369.939,121.883z
			 M386.72,106.682c6.37-1.268,11.913,2.967,13.138,9.131l0.018,0.107c1.226,6.166-2.189,12.074-8.561,13.335
			c-6.362,1.27-11.9-2.969-13.13-9.125l-0.021-0.109C376.942,113.865,380.352,107.95,386.72,106.682"/>
		<polygon fill="#0078BF" points="446.201,127.007 427.957,125.818 429.869,96.557 421.812,96.033 419.431,132.623 445.728,134.327 
					"/>
		<path fill="#0078BF" d="M467.128,140.892c10.764,3.495,21.221-2.09,24.443-12.002l0.027-0.103
			c3.211-9.922-1.893-20.45-12.656-23.942c-10.771-3.495-21.232,2.089-24.447,12.002l-0.031,0.104
			C451.242,126.871,456.357,137.398,467.128,140.892 M462.529,119.454l0.031-0.098c1.928-5.979,7.793-9.476,13.99-7.468
			c6.174,2.007,8.938,8.408,7,14.388l-0.031,0.105c-1.941,5.977-7.811,9.471-13.98,7.475
			C463.347,131.837,460.58,125.435,462.529,119.454"/>
		<path fill="#0078BF" d="M506.63,160.472c5.545,3.772,11.291,4.536,16.217,4.026l8.971-13.161l-13.152-8.979l-3.93,5.758
			l6.707,4.584l-2.947,4.324c-2.516,0.055-5.098-0.814-7.51-2.469c-5.381-3.656-6.41-10.317-2.615-15.859l0.051-0.085
			c3.508-5.151,10.283-6.809,15.129-3.508c3.5,2.395,4.814,4.935,5.822,8.479l7.645-2.202c-1.313-4.836-3.604-8.551-9.061-12.268
			c-9.18-6.263-20.699-3.781-26.564,4.83l-0.059,0.089C495.224,142.987,497.197,154.032,506.63,160.472"/>
		<polygon fill="#0078BF" points="531.605,181.445 557.992,155.957 552.378,150.156 525.998,175.635 		"/>
		<path fill="#0078BF" d="M558.515,204.315l-5.154,7.233l4.523,7.132l22.756-33.066l-3.977-6.283l-39.609,6.523l4.406,6.941
			l8.744-1.574L558.515,204.315z M570.429,187.577l-7.449,10.487l-5.211-8.225L570.429,187.577z"/>
	</g>
</g>
</svg>
