<?xml version="1.0" encoding="UTF-8" standalone="no"?>
<!-- Generator: Adobe Illustrator 15.1.0, SVG Export Plug-In . SVG Version: 6.00 Build 0)  -->

<svg
   xmlns:dc="http://purl.org/dc/elements/1.1/"
   xmlns:cc="http://creativecommons.org/ns#"
   xmlns:rdf="http://www.w3.org/1999/02/22-rdf-syntax-ns#"
   xmlns:svg="http://www.w3.org/2000/svg"
   xmlns="http://www.w3.org/2000/svg"
   xmlns:sodipodi="http://sodipodi.sourceforge.net/DTD/sodipodi-0.dtd"
   xmlns:inkscape="http://www.inkscape.org/namespaces/inkscape"
   version="1.1"
   id="LOGO"
   x="0px"
   y="0px"
   width="841.89px"
   height="595.28px"
   viewBox="0 0 841.89 595.28"
   enable-background="new 0 0 841.89 595.28"
   xml:space="preserve"
   sodipodi:docname="logo_clinica_podologica_las_monjas_white.svg"
   inkscape:version="0.92.5 (0.92.5+69)"><metadata
   id="metadata3963"><rdf:RDF><cc:Work
       rdf:about=""><dc:format>image/svg+xml</dc:format><dc:type
         rdf:resource="http://purl.org/dc/dcmitype/StillImage" /><dc:title></dc:title></cc:Work></rdf:RDF></metadata><defs
   id="defs3961" /><sodipodi:namedview
   pagecolor="#ffffff"
   bordercolor="#666666"
   borderopacity="1"
   objecttolerance="10"
   gridtolerance="10"
   guidetolerance="10"
   inkscape:pageopacity="0"
   inkscape:pageshadow="2"
   inkscape:window-width="1920"
   inkscape:window-height="1016"
   id="namedview3959"
   showgrid="false"
   inkscape:zoom="1.390942"
   inkscape:cx="271.40606"
   inkscape:cy="297.64001"
   inkscape:window-x="1080"
   inkscape:window-y="472"
   inkscape:window-maximized="1"
   inkscape:current-layer="LOGO" />
<g
   id="g3956"
   style="fill:#ffffff">
	<g
   id="g3882"
   style="fill:#ffffff">
		<path
   d="m 476.055,214.638 c -0.58,-5.098 -2.627,-9.619 -6.263,-13.841 -3.398,-4.102 -9.379,-7.638 -18.301,-10.811 -4.136,-1.502 -7.707,-2.268 -10.593,-2.268 -4.143,0 -7.072,1.522 -8.914,4.622 -2.918,5.11 -3.06,11.613 0.846,17.693 1.048,1.697 3.524,5.6 5.528,7.9 2.663,3.062 4.013,7.208 5.263,11.442 0.893,4.055 1.5,8.716 0.901,12.901 -0.771,4.332 -5.263,14.286 -7.629,15.865 -7.441,4.985 -7.001,12.829 -6.484,16.75 1.012,7.91 4.516,12.778 10.251,14.929 9.471,3.304 16.193,1.182 19.936,-6.327 3.85,-7.828 7.111,-18.467 9.712,-31.627 1.386,-7.408 2.882,-14.165 4.434,-20.082 1.455,-6.132 1.897,-11.903 1.313,-17.146"
   id="path3858"
   inkscape:connector-curvature="0"
   style="fill:#ffffff" />
		<path
   d="m 475.3,199.814 c 2.147,0.538 3.453,-0.545 3.866,-3.264 0.258,-1.629 -0.75,-2.795 -2.977,-3.453 -0.357,-0.056 -0.71,-0.085 -1.027,-0.085 -1.98,0 -3.041,1.113 -3.156,3.293 0,1.862 1.016,2.943 3.294,3.509"
   id="path3860"
   inkscape:connector-curvature="0"
   style="fill:#ffffff" />
		<path
   d="m 469.312,185.104 c -0.878,-0.435 -1.651,-0.657 -2.321,-0.657 -1.43,0 -2.445,1.019 -3.104,3.088 -0.567,2.403 0.278,4.105 2.449,4.914 2.444,0.96 4.199,0.064 5.469,-2.764 0.804,-2.019 0.022,-3.471 -2.493,-4.581"
   id="path3862"
   inkscape:connector-curvature="0"
   style="fill:#ffffff" />
		<path
   d="m 457.781,177.695 c -1.75,0 -2.758,1.197 -3.186,3.774 -0.549,2.854 0.424,4.656 2.996,5.666 2.599,0.681 4.211,-0.684 5.056,-4.344 0.655,-2.381 -0.302,-3.893 -3.028,-4.75 -0.686,-0.229 -1.301,-0.346 -1.838,-0.346"
   id="path3864"
   inkscape:connector-curvature="0"
   style="fill:#ffffff" />
		<path
   d="m 434.803,165.514 c -2.246,0.062 -3.374,0.669 -4.322,1.828 -1.063,1.274 -1.861,3.332 -1.404,6.023 l 0.762,5.55 c 0.697,3.342 3.106,4.957 6.719,4.957 2.473,0 5.282,-1.712 5.422,-5.316 v -7.184 c -0.719,-3.844 -2.913,-5.864 -6.699,-5.864 -0.161,0 -0.324,0 -0.478,0.006"
   id="path3866"
   inkscape:connector-curvature="0"
   style="fill:#ffffff" />
		<path
   d="m 447.844,183.289 c 2.715,0.543 4.5,-1.248 5.354,-5.302 0.277,-3.389 -0.825,-5.142 -3.573,-5.697 -0.316,-0.067 -0.63,-0.104 -0.924,-0.104 -0.826,0 -1.584,0.265 -2.206,0.792 -1.017,0.721 -1.668,2.433 -1.934,5.068 -0.281,3.074 0.822,4.836 3.283,5.243"
   id="path3868"
   inkscape:connector-curvature="0"
   style="fill:#ffffff" />
		<path
   d="m 404.81,229.037 c 2.002,-2.295 4.491,-6.203 5.528,-7.901 3.91,-6.072 3.763,-12.578 0.848,-17.683 -1.854,-3.112 -4.769,-4.63 -8.912,-4.63 -2.885,0 -6.449,0.769 -10.599,2.276 -8.92,3.159 -14.903,6.7 -18.3,10.803 -3.635,4.221 -5.684,8.751 -6.263,13.841 -0.587,5.249 -0.143,11.018 1.322,17.148 1.546,5.913 3.041,12.674 4.425,20.08 2.602,13.159 5.872,23.803 9.709,31.636 3.752,7.504 10.462,9.618 19.946,6.319 5.729,-2.146 9.226,-7.011 10.253,-14.931 0.508,-3.921 0.943,-11.768 -6.495,-16.743 -2.37,-1.585 -6.861,-11.533 -7.626,-15.867 -0.602,-4.188 0.006,-8.852 0.901,-12.9 1.26,-4.242 2.594,-8.38 5.263,-11.448"
   id="path3870"
   inkscape:connector-curvature="0"
   style="fill:#ffffff" />
		<path
   d="m 367.871,210.921 c 2.272,-0.565 3.287,-1.651 3.287,-3.508 -0.111,-2.181 -1.172,-3.296 -3.153,-3.296 -0.324,0 -0.665,0.029 -1.028,0.087 -2.229,0.655 -3.233,1.824 -2.971,3.451 0.411,2.719 1.71,3.802 3.865,3.266"
   id="path3872"
   inkscape:connector-curvature="0"
   style="fill:#ffffff" />
		<path
   d="m 376.831,203.556 c 2.177,-0.81 3.017,-2.507 2.455,-4.919 -0.665,-2.07 -1.681,-3.082 -3.102,-3.082 -0.675,0 -1.455,0.214 -2.324,0.657 -2.518,1.111 -3.298,2.566 -2.499,4.586 1.277,2.821 3.029,3.712 5.47,2.758"
   id="path3874"
   inkscape:connector-curvature="0"
   style="fill:#ffffff" />
		<path
   d="m 385.572,198.233 c 2.576,-1.006 3.542,-2.808 2.997,-5.66 -0.427,-2.572 -1.441,-3.776 -3.177,-3.776 -0.54,0 -1.155,0.118 -1.838,0.347 -2.73,0.863 -3.691,2.371 -3.032,4.749 0.849,3.658 2.457,5.027 5.05,4.34"
   id="path3876"
   inkscape:connector-curvature="0"
   style="fill:#ffffff" />
		<path
   d="m 407.886,176.615 c -3.781,0 -5.978,2.02 -6.695,5.864 v 7.18 c 0.139,3.608 2.946,5.32 5.423,5.32 3.605,0 6.021,-1.615 6.714,-4.957 l 0.768,-5.55 c 0.454,-2.691 -0.345,-4.747 -1.407,-6.025 -0.948,-1.161 -2.073,-1.764 -4.318,-1.824 -0.164,-0.008 -0.323,-0.008 -0.485,-0.008"
   id="path3878"
   inkscape:connector-curvature="0"
   style="fill:#ffffff" />
		<path
   d="m 395.334,194.392 c 2.449,-0.403 3.548,-2.167 3.271,-5.243 -0.271,-2.633 -0.919,-4.344 -1.931,-5.064 -0.619,-0.525 -1.379,-0.793 -2.203,-0.793 -0.292,0 -0.609,0.034 -0.925,0.107 -2.752,0.553 -3.852,2.308 -3.57,5.697 0.845,4.053 2.635,5.841 5.358,5.296"
   id="path3880"
   inkscape:connector-curvature="0"
   style="fill:#ffffff" />
	</g>
	<g
   id="g3894"
   style="fill:#ffffff">
		<path
   d="m 356.298,327.376 c -2.359,0 -4.511,0.425 -6.461,1.246 -1.951,0.837 -3.624,1.965 -5.017,3.401 -1.403,1.449 -2.492,3.123 -3.282,5.028 -0.782,1.901 -1.175,3.949 -1.175,6.132 v 0.087 c 0,2.184 0.393,4.23 1.175,6.156 0.79,1.921 1.879,3.579 3.282,4.992 1.393,1.417 3.052,2.528 4.975,3.343 1.915,0.813 3.994,1.227 6.243,1.227 1.48,0 2.819,-0.132 4.01,-0.37 1.199,-0.254 2.296,-0.614 3.3,-1.099 1.008,-0.484 1.924,-1.049 2.766,-1.723 0.847,-0.667 1.657,-1.421 2.447,-2.268 l -4.276,-4.321 c -1.196,1.103 -2.391,1.977 -3.598,2.624 -1.214,0.635 -2.687,0.955 -4.435,0.955 -1.308,0 -2.51,-0.254 -3.596,-0.762 -1.102,-0.52 -2.03,-1.201 -2.798,-2.079 -0.771,-0.868 -1.377,-1.89 -1.812,-3.052 -0.436,-1.167 -0.659,-2.401 -0.659,-3.711 V 343.1 c 0,-1.317 0.223,-2.544 0.659,-3.699 0.435,-1.142 1.05,-2.154 1.83,-3.027 0.783,-0.873 1.726,-1.56 2.82,-2.052 1.089,-0.492 2.28,-0.746 3.556,-0.746 1.546,0 2.929,0.313 4.167,0.917 1.236,0.61 2.455,1.451 3.649,2.532 l 4.279,-4.926 c -0.699,-0.703 -1.457,-1.349 -2.272,-1.929 -0.81,-0.575 -1.699,-1.075 -2.666,-1.48 -0.957,-0.412 -2.026,-0.727 -3.207,-0.965 -1.179,-0.227 -2.483,-0.349 -3.904,-0.349"
   id="path3884"
   inkscape:connector-curvature="0"
   style="fill:#ffffff" />
		<path
   d="m 406.977,358.463 -13.091,-30.778 h -6.204 l -13.089,30.778 h 6.852 l 2.792,-6.85 h 12.92 l 2.796,6.85 z m -20.341,-12.795 4.064,-9.906 4.057,9.906 z"
   id="path3886"
   inkscape:connector-curvature="0"
   style="fill:#ffffff" />
		<polygon
   points="436.934,352.396 421.689,352.396 421.689,327.896 414.97,327.896 414.97,358.459 436.934,358.459 "
   id="polygon3888"
   style="fill:#ffffff" />
		<polygon
   points="445.272,327.903 445.272,358.463 467.229,358.463 467.229,352.396 451.991,352.396 451.991,327.903 "
   id="polygon3890"
   style="fill:#ffffff" />
		<polygon
   points="496.593,340.084 482.198,340.084 482.198,333.885 498.562,333.885 498.562,327.896 475.558,327.896 475.558,358.459 498.788,358.459 498.788,352.475 482.198,352.475 482.198,346.068 496.593,346.068 "
   id="polygon3892"
   style="fill:#ffffff" />
	</g>
	<g
   id="g3914"
   style="fill:#ffffff">
		<polygon
   points="149.742,385.662 137.48,385.662 137.48,441.382 177.523,441.382 177.523,430.241 149.742,430.241 "
   id="polygon3896"
   style="fill:#ffffff" />
		<path
   d="m 209.84,385.266 -23.88,56.12 h 12.5 l 5.096,-12.503 h 23.553 l 5.098,12.503 h 12.812 l -23.876,-56.12 z m -1.911,32.794 7.402,-18.074 7.402,18.074 z"
   id="path3898"
   inkscape:connector-curvature="0"
   style="fill:#ffffff" />
		<path
   d="m 279.414,408.031 c -9.635,-2.469 -12.018,-3.664 -12.018,-7.323 v -0.159 c 0,-2.715 2.466,-4.857 7.158,-4.857 4.697,0 9.555,2.067 14.488,5.493 l 6.37,-9.231 c -5.648,-4.537 -12.573,-7.089 -20.691,-7.089 -11.389,0 -19.509,6.688 -19.509,16.8 v 0.154 c 0,11.069 7.246,14.178 18.466,17.031 9.313,2.39 11.231,3.988 11.231,7.088 v 0.159 c 0,3.271 -3.028,5.255 -8.043,5.255 -6.366,0 -11.621,-2.632 -16.635,-6.763 l -7.251,8.68 c 6.691,5.97 15.213,8.91 23.65,8.91 12.016,0 20.454,-6.211 20.454,-17.272 v -0.159 c -10e-4,-9.713 -6.371,-13.773 -17.67,-16.717"
   id="path3900"
   inkscape:connector-curvature="0"
   style="fill:#ffffff" />
		<polygon
   points="339.587,441.382 351.615,441.382 351.615,405.236 367.137,428.804 367.451,428.804 383.138,405.01 383.138,441.382 395.318,441.382 395.318,385.662 382.098,385.662 367.451,409.225 352.808,385.662 339.587,385.662 "
   id="polygon3902"
   style="fill:#ffffff" />
		<path
   d="m 469.418,413.516 v -0.151 c 0,-15.84 -12.33,-28.663 -29.523,-28.663 -17.194,0 -29.688,12.975 -29.688,28.814 v 0.162 c 0,15.841 12.335,28.663 29.525,28.663 17.197,0 29.686,-12.974 29.686,-28.825 m -12.814,0.162 c 0,9.562 -6.839,17.356 -16.709,17.356 -9.871,0 -16.874,-7.958 -16.874,-17.519 v -0.151 c 0,-9.558 6.849,-17.355 16.712,-17.355 9.869,0 16.871,7.957 16.871,17.507 z"
   id="path3904"
   inkscape:connector-curvature="0"
   style="fill:#ffffff" />
		<polygon
   points="523.398,441.386 533.828,441.386 533.828,385.662 521.729,385.662 521.729,419.969 495.612,385.662 484.318,385.662 484.318,441.386 496.414,441.386 496.414,405.954 "
   id="polygon3906"
   style="fill:#ffffff" />
		<path
   d="m 571,421.563 c 0,6.443 -2.868,9.232 -7.48,9.232 -3.896,0 -7.017,-2.072 -10.196,-5.572 l -7.719,8.593 c 3.821,4.544 9.562,8.358 18.233,8.358 6.044,0 11.068,-1.742 14.485,-5.171 3.347,-3.339 5.251,-8.28 5.251,-14.885 V 385.657 H 571 Z"
   id="path3908"
   inkscape:connector-curvature="0"
   style="fill:#ffffff" />
		<path
   d="m 617.167,385.266 -23.878,56.12 h 12.499 l 5.101,-12.503 h 23.559 l 5.092,12.503 h 12.812 l -23.876,-56.12 z m -1.905,32.794 7.405,-18.074 7.402,18.074 z"
   id="path3910"
   inkscape:connector-curvature="0"
   style="fill:#ffffff" />
		<path
   d="m 686.744,408.031 c -9.628,-2.469 -12.018,-3.664 -12.018,-7.323 v -0.159 c 0,-2.715 2.469,-4.857 7.156,-4.857 4.698,0 9.561,2.067 14.494,5.493 l 6.37,-9.231 c -5.655,-4.537 -12.577,-7.089 -20.693,-7.089 -11.387,0 -19.512,6.688 -19.512,16.8 v 0.154 c 0,11.069 7.255,14.178 18.472,17.031 9.311,2.39 11.224,3.988 11.224,7.088 v 0.159 c 0,3.271 -3.024,5.255 -8.036,5.255 -6.371,0 -11.629,-2.632 -16.639,-6.763 l -7.247,8.68 c 6.688,5.97 15.208,8.91 23.644,8.91 12.017,0 20.45,-6.211 20.45,-17.272 v -0.159 c 0,-9.713 -6.358,-13.773 -17.665,-16.717"
   id="path3912"
   inkscape:connector-curvature="0"
   style="fill:#ffffff" />
	</g>
	<g
   id="g3934"
   style="fill:#ffffff">
		<path
   d="m 361.075,476.085 h -5.078 v 22.924 h 5.052 c 2.379,0 4.068,-0.596 5.066,-1.802 1.002,-1.191 1.504,-3.052 1.504,-5.569 v -9.005 c 0,-2.401 -0.49,-4.091 -1.474,-5.071 -0.988,-0.981 -2.677,-1.477 -5.07,-1.477 m 3.272,14.731 v 0.5 c 0,0.684 -0.006,1.172 -0.012,1.5 -0.006,0.317 -0.042,0.719 -0.091,1.215 -0.062,0.492 -0.153,0.862 -0.294,1.095 -0.133,0.238 -0.323,0.484 -0.559,0.748 -0.238,0.262 -0.553,0.432 -0.937,0.539 -0.387,0.091 -0.845,0.139 -1.379,0.139 h -1.802 v -18.006 h 1.734 c 0.363,0 0.685,0.02 0.979,0.079 0.288,0.043 0.543,0.095 0.754,0.171 0.223,0.071 0.413,0.186 0.583,0.329 0.159,0.149 0.304,0.289 0.421,0.429 0.117,0.135 0.206,0.329 0.284,0.575 0.076,0.246 0.141,0.456 0.183,0.651 0.04,0.205 0.065,0.463 0.091,0.801 0.021,0.342 0.034,0.627 0.04,0.873 0,0.254 0.006,0.58 0.006,0.996 v 7.366 z"
   id="path3916"
   inkscape:connector-curvature="0"
   style="fill:#ffffff" />
		<polygon
   points="379.163,485.911 375.067,485.911 375.067,478.546 380.8,478.546 380.8,476.085 371.799,476.085 371.799,499.009 380.8,499.009 380.8,496.552 375.067,496.552 375.067,488.372 379.163,488.372 "
   id="polygon3918"
   style="fill:#ffffff" />
		<path
   d="m 389.271,478.546 c 0.976,0 1.718,0.313 2.23,0.943 0.508,0.62 0.83,1.453 0.982,2.496 0.031,0.295 0.052,0.5 0.058,0.647 l 3.282,-0.821 c -0.038,-0.314 -0.065,-0.561 -0.096,-0.738 -0.258,-1.663 -0.934,-2.937 -2.026,-3.857 -1.099,-0.904 -2.572,-1.354 -4.431,-1.354 -1.734,0 -3.12,0.488 -4.167,1.492 -1.048,1 -1.578,2.346 -1.578,4.028 0,1.163 0.224,2.191 0.676,3.101 0.441,0.908 1.042,1.658 1.798,2.246 l 4.088,3.27 c 0.385,0.31 0.684,0.563 0.907,0.778 0.224,0.218 0.472,0.496 0.744,0.833 0.27,0.35 0.474,0.723 0.609,1.14 0.135,0.409 0.193,0.856 0.193,1.349 0,1.636 -0.82,2.453 -2.453,2.453 -2.02,0 -3.11,-1.635 -3.271,-4.91 l -3.278,0.822 c 0.133,2.092 0.738,3.747 1.824,4.961 1.09,1.211 2.663,1.813 4.725,1.813 1.744,0 3.145,-0.472 4.173,-1.421 1.042,-0.939 1.562,-2.266 1.562,-3.938 0,-2.459 -1.094,-4.56 -3.282,-6.329 l -4.088,-3.271 c -1.091,-0.878 -1.636,-1.957 -1.636,-3.238 0,-0.787 0.208,-1.397 0.636,-1.838 0.428,-0.432 1.036,-0.657 1.819,-0.657"
   id="path3920"
   inkscape:connector-curvature="0"
   style="fill:#ffffff" />
		<path
   d="m 404.605,476.085 h -5.082 v 22.924 h 5.055 c 2.377,0 4.07,-0.596 5.068,-1.802 0.999,-1.191 1.504,-3.052 1.504,-5.569 v -9.005 c 0,-2.401 -0.492,-4.091 -1.477,-5.071 -0.985,-0.98 -2.681,-1.477 -5.068,-1.477 m 3.268,14.731 v 0.5 c 0,0.684 -0.006,1.172 -0.012,1.5 -0.006,0.317 -0.042,0.719 -0.089,1.215 -0.064,0.492 -0.155,0.862 -0.294,1.095 -0.131,0.238 -0.325,0.484 -0.558,0.748 -0.24,0.262 -0.554,0.432 -0.94,0.539 -0.381,0.091 -0.846,0.139 -1.375,0.139 h -1.803 v -18.006 h 1.732 c 0.364,0 0.686,0.02 0.978,0.079 0.286,0.043 0.546,0.095 0.754,0.171 0.227,0.071 0.416,0.186 0.582,0.329 0.16,0.149 0.306,0.289 0.421,0.429 0.119,0.135 0.21,0.329 0.288,0.575 0.078,0.246 0.139,0.456 0.18,0.651 0.044,0.205 0.072,0.463 0.089,0.801 0.024,0.342 0.036,0.627 0.042,0.873 0,0.254 0.006,0.58 0.006,0.996 v 7.366 z"
   id="path3922"
   inkscape:connector-curvature="0"
   style="fill:#ffffff" />
		<polygon
   points="422.691,485.911 418.599,485.911 418.599,478.546 424.332,478.546 424.332,476.085 415.323,476.085 415.323,499.009 424.332,499.009 424.332,496.552 418.599,496.552 418.599,488.372 422.691,488.372 "
   id="polygon3924"
   style="fill:#ffffff" />
		<path
   d="m 433.453,478.546 v 2.447 h 2.452 v 18.011 h 3.278 v -22.911 h -2.457 c -0.535,1.048 -1.63,1.865 -3.273,2.453"
   id="path3926"
   inkscape:connector-curvature="0"
   style="fill:#ffffff" />
		<path
   d="m 453.904,478.993 c -0.311,-0.639 -0.675,-1.189 -1.119,-1.654 -0.428,-0.457 -0.969,-0.822 -1.615,-1.084 -0.632,-0.262 -1.35,-0.393 -2.132,-0.393 -1.008,0 -1.89,0.199 -2.636,0.595 -0.754,0.394 -1.345,0.949 -1.793,1.651 -0.441,0.711 -0.771,1.517 -0.98,2.4 -0.219,0.897 -0.321,1.874 -0.321,2.949 0,0.98 0.083,1.858 0.246,2.624 0.155,0.754 0.417,1.448 0.785,2.052 0.358,0.607 0.866,1.068 1.521,1.397 0.663,0.317 1.444,0.468 2.365,0.468 1.528,0 2.619,-0.547 3.267,-1.627 v 3.27 c 0,3.275 -0.817,4.91 -2.453,4.91 -0.929,0 -1.575,-0.271 -1.925,-0.817 -0.356,-0.548 -0.535,-1.366 -0.535,-2.461 h -3.271 c 0,1.89 0.5,3.358 1.48,4.405 0.992,1.036 2.401,1.56 4.25,1.56 0.858,0 1.624,-0.151 2.29,-0.452 0.675,-0.29 1.223,-0.695 1.647,-1.211 0.421,-0.52 0.777,-1.131 1.052,-1.853 0.273,-0.742 0.46,-1.496 0.58,-2.294 0.099,-0.803 0.158,-1.667 0.158,-2.608 v -7.362 c 0,-0.841 -0.067,-1.631 -0.211,-2.369 -0.125,-0.75 -0.352,-1.444 -0.65,-2.096 m -2.413,6.918 c -0.591,1.092 -1.409,1.64 -2.453,1.64 -0.238,0 -0.46,-0.021 -0.663,-0.063 -0.213,-0.049 -0.384,-0.111 -0.539,-0.219 -0.154,-0.111 -0.294,-0.206 -0.412,-0.305 -0.116,-0.112 -0.227,-0.246 -0.311,-0.449 -0.087,-0.179 -0.166,-0.35 -0.227,-0.488 -0.055,-0.143 -0.114,-0.354 -0.138,-0.611 -0.056,-0.242 -0.079,-0.453 -0.104,-0.623 -0.02,-0.163 -0.035,-0.405 -0.047,-0.71 -0.008,-0.306 -0.02,-0.54 -0.02,-0.711 v -0.73 c 0,-0.535 0.039,-1.035 0.115,-1.488 0.079,-0.456 0.201,-0.897 0.385,-1.306 0.171,-0.409 0.425,-0.726 0.758,-0.956 0.326,-0.23 0.734,-0.345 1.202,-0.345 0.469,0 0.866,0.114 1.203,0.345 0.333,0.23 0.587,0.547 0.754,0.956 0.175,0.408 0.306,0.842 0.39,1.302 0.075,0.441 0.106,0.949 0.106,1.492 v 3.269 z"
   id="path3928"
   inkscape:connector-curvature="0"
   style="fill:#ffffff" />
		<path
   d="m 467.104,486.907 c 0.738,-0.556 1.271,-1.234 1.616,-2.044 0.353,-0.802 0.516,-1.821 0.516,-3.04 0,-1.894 -0.44,-3.357 -1.342,-4.394 -0.904,-1.052 -2.247,-1.575 -4.04,-1.575 -1.794,0 -3.151,0.523 -4.056,1.563 -0.897,1.036 -1.358,2.504 -1.358,4.405 0,1.211 0.183,2.227 0.528,3.036 0.35,0.81 0.896,1.492 1.627,2.048 -0.869,0.553 -1.5,1.27 -1.894,2.14 -0.392,0.868 -0.587,1.996 -0.587,3.425 0,2.184 0.449,3.865 1.365,5.024 0.897,1.163 2.361,1.746 4.374,1.746 2.008,0 3.461,-0.583 4.362,-1.746 0.9,-1.159 1.364,-2.841 1.364,-5.024 0,-1.401 -0.202,-2.539 -0.591,-3.413 -0.395,-0.87 -1.017,-1.59 -1.884,-2.151 m -3.25,-8.361 c 1.364,0 2.048,1.091 2.048,3.277 0,0.509 -0.024,0.949 -0.071,1.321 -0.044,0.386 -0.136,0.75 -0.274,1.124 -0.135,0.372 -0.35,0.654 -0.627,0.849 -0.286,0.199 -0.65,0.294 -1.075,0.294 -0.438,0 -0.794,-0.095 -1.075,-0.294 -0.295,-0.194 -0.5,-0.477 -0.636,-0.845 -0.14,-0.361 -0.238,-0.73 -0.281,-1.124 -0.052,-0.372 -0.075,-0.816 -0.075,-1.325 -0.001,-2.186 0.681,-3.277 2.066,-3.277 m 2.41,15.192 c -0.031,0.353 -0.092,0.71 -0.183,1.095 -0.104,0.382 -0.234,0.683 -0.409,0.917 -0.17,0.219 -0.408,0.425 -0.719,0.579 -0.302,0.147 -0.674,0.223 -1.099,0.223 -0.429,0 -0.786,-0.075 -1.101,-0.215 -0.305,-0.158 -0.551,-0.349 -0.713,-0.575 -0.183,-0.234 -0.322,-0.535 -0.417,-0.909 -0.099,-0.389 -0.167,-0.75 -0.191,-1.106 -0.027,-0.349 -0.047,-0.774 -0.047,-1.274 0,-0.555 0.039,-1.043 0.11,-1.473 0.061,-0.437 0.175,-0.838 0.362,-1.229 0.171,-0.386 0.429,-0.691 0.766,-0.901 0.329,-0.219 0.746,-0.321 1.23,-0.321 0.496,0 0.897,0.103 1.23,0.321 0.329,0.21 0.579,0.516 0.762,0.909 0.163,0.384 0.285,0.801 0.349,1.234 0.072,0.433 0.1,0.913 0.1,1.46 0.001,0.499 -0.007,0.919 -0.03,1.265"
   id="path3930"
   inkscape:connector-curvature="0"
   style="fill:#ffffff" />
		<path
   d="m 483.285,485.015 c 0.58,-0.834 0.866,-1.897 0.866,-3.203 0,-1.873 -0.484,-3.346 -1.465,-4.39 -0.98,-1.04 -2.401,-1.56 -4.259,-1.56 -1.854,0 -3.258,0.52 -4.254,1.567 -0.977,1.056 -1.477,2.517 -1.477,4.382 v 0.821 h 3.274 c 0,-0.512 0.008,-0.937 0.051,-1.306 0.027,-0.369 0.087,-0.734 0.19,-1.104 0.096,-0.377 0.23,-0.678 0.4,-0.9 0.163,-0.227 0.401,-0.413 0.711,-0.561 0.311,-0.15 0.675,-0.217 1.104,-0.217 0.916,0 1.56,0.273 1.912,0.825 0.366,0.551 0.541,1.364 0.541,2.44 0,1.211 -0.246,2.056 -0.734,2.552 -0.5,0.488 -1.35,0.734 -2.537,0.734 v 3.274 c 1.172,0 2.006,0.35 2.514,1.059 0.496,0.703 0.758,1.719 0.758,3.025 0,0.523 -0.016,0.949 -0.039,1.31 -0.037,0.368 -0.097,0.742 -0.199,1.11 -0.1,0.382 -0.223,0.676 -0.397,0.905 -0.175,0.227 -0.413,0.409 -0.714,0.556 -0.31,0.147 -0.68,0.215 -1.104,0.215 -0.429,0 -0.793,-0.067 -1.104,-0.215 -0.31,-0.146 -0.548,-0.329 -0.711,-0.556 -0.17,-0.229 -0.305,-0.523 -0.4,-0.905 -0.104,-0.368 -0.163,-0.742 -0.19,-1.11 -0.043,-0.36 -0.051,-0.786 -0.051,-1.31 h -3.274 v 0.825 c 0,1.882 0.492,3.351 1.469,4.39 0.988,1.044 2.4,1.567 4.262,1.567 1.984,0 3.43,-0.595 4.354,-1.773 0.917,-1.191 1.37,-2.858 1.37,-5.009 0,-1.496 -0.282,-2.746 -0.829,-3.723 -0.564,-0.977 -1.37,-1.647 -2.441,-2.004 1.022,-0.311 1.82,-0.878 2.403,-1.711"
   id="path3932"
   inkscape:connector-curvature="0"
   style="fill:#ffffff" />
	</g>
	<g
   id="g3954"
   style="fill:#ffffff">
		<path
   d="m 290.563,210.884 -9.496,-5.563 3.098,-5.299 c 4.166,-7.096 3.711,-15.014 -3.616,-19.308 l -0.091,-0.054 c -6.463,-3.79 -13.617,-1.845 -18.039,5.695 l -7.579,12.935 31.636,18.558 z m -12.453,-14.715 -3.236,5.515 -9.674,-5.676 3.149,-5.376 c 2.042,-3.48 4.995,-4.669 8.112,-2.842 l 0.089,0.06 c 2.711,1.583 3.598,4.839 1.56,8.319"
   id="path3936"
   inkscape:connector-curvature="0"
   style="fill:#ffffff" />
		<path
   d="m 318.834,148.429 c -7.257,-7.466 -18.952,-7.865 -27.06,0.014 -8.116,7.878 -8.07,19.721 -0.818,27.2 l 0.076,0.074 c 7.255,7.471 18.951,7.868 27.056,-0.014 8.12,-7.876 8.07,-19.717 0.815,-27.201 z m -5.846,21.871 c -4.654,4.515 -11.605,3.969 -15.98,-0.538 l -0.068,-0.069 c -4.381,-4.508 -4.729,-11.327 -0.071,-15.85 4.661,-4.522 11.619,-3.977 15.987,0.542 l 0.073,0.067 c 4.376,4.51 4.717,11.326 0.059,15.848"
   id="path3938"
   inkscape:connector-curvature="0"
   style="fill:#ffffff" />
		<path
   d="m 359.539,125.683 -0.05,-0.102 c -4.786,-9.14 -15.524,-12.452 -25.731,-7.106 l -12.679,6.638 17.024,32.501 12.676,-6.634 c 10.217,-5.354 13.551,-16.153 8.76,-25.297 m -17.662,21.731 -10.266,-19.584 5.525,-2.896 c 5.85,-3.068 11.908,-1.099 14.933,4.661 l 0.045,0.096 c 3.014,5.749 1.133,11.77 -4.717,14.837 z"
   id="path3940"
   inkscape:connector-curvature="0"
   style="fill:#ffffff" />
		<path
   d="m 369.939,121.883 c 2.033,10.212 11.637,16.896 22.73,14.685 11.095,-2.208 17.491,-12.177 15.457,-22.396 l -0.024,-0.104 c -2.032,-10.22 -11.637,-16.903 -22.729,-14.703 -11.095,2.207 -17.491,12.186 -15.457,22.406 z m 16.781,-15.201 c 6.37,-1.268 11.913,2.967 13.137,9.131 l 0.018,0.107 c 1.226,6.166 -2.189,12.074 -8.561,13.335 -6.362,1.27 -11.9,-2.969 -13.129,-9.125 l -0.021,-0.109 c -1.222,-6.156 2.188,-12.071 8.556,-13.339"
   id="path3942"
   inkscape:connector-curvature="0"
   style="fill:#ffffff" />
		<polygon
   points="446.201,127.007 427.956,125.818 429.869,96.557 421.812,96.033 419.431,132.623 445.729,134.327 "
   id="polygon3944"
   style="fill:#ffffff" />
		<path
   d="m 467.128,140.892 c 10.765,3.495 21.222,-2.09 24.444,-12.002 l 0.028,-0.103 c 3.211,-9.922 -1.894,-20.45 -12.657,-23.942 -10.771,-3.495 -21.233,2.089 -24.448,12.002 l -0.031,0.104 c -3.223,9.92 1.893,20.447 12.664,23.941 m -4.599,-21.438 0.031,-0.098 c 1.928,-5.979 7.794,-9.476 13.99,-7.468 6.175,2.007 8.938,8.408 7,14.388 l -0.031,0.105 c -1.941,5.977 -7.811,9.471 -13.981,7.475 -6.191,-2.019 -8.958,-8.421 -7.009,-14.402"
   id="path3946"
   inkscape:connector-curvature="0"
   style="fill:#ffffff" />
		<path
   d="m 506.631,160.472 c 5.544,3.772 11.291,4.536 16.216,4.026 l 8.97,-13.161 -13.152,-8.979 -3.93,5.758 6.707,4.584 -2.947,4.324 c -2.514,0.055 -5.097,-0.814 -7.51,-2.469 -5.379,-3.656 -6.41,-10.317 -2.615,-15.859 l 0.052,-0.085 c 3.508,-5.151 10.282,-6.809 15.129,-3.508 3.5,2.395 4.813,4.935 5.821,8.479 l 7.645,-2.202 c -1.313,-4.836 -3.604,-8.551 -9.061,-12.268 -9.18,-6.263 -20.698,-3.781 -26.564,4.83 l -0.059,0.089 c -6.108,8.956 -4.136,20.001 5.298,26.441"
   id="path3948"
   inkscape:connector-curvature="0"
   style="fill:#ffffff" />
		<polygon
   points="552.379,150.156 525.998,175.635 531.605,181.445 557.991,155.957 "
   id="polygon3950"
   style="fill:#ffffff" />
		<path
   d="m 558.515,204.315 -5.155,7.233 4.525,7.132 22.756,-33.066 -3.977,-6.283 -39.609,6.523 4.406,6.941 8.744,-1.574 z m 11.915,-16.738 -7.45,10.487 -5.211,-8.225 z"
   id="path3952"
   inkscape:connector-curvature="0"
   style="fill:#ffffff" />
	</g>
</g>
</svg>