<?xml version="1.0" encoding="utf-8"?>
<!-- Generator: Adobe Illustrator 15.1.0, SVG Export Plug-In . SVG Version: 6.00 Build 0)  -->
<!DOCTYPE svg PUBLIC "-//W3C//DTD SVG 1.1//EN" "http://www.w3.org/Graphics/SVG/1.1/DTD/svg11.dtd">
<svg version="1.1" id="LOGO" xmlns="http://www.w3.org/2000/svg" xmlns:xlink="http://www.w3.org/1999/xlink" x="0px" y="0px"
	 width="841.89px" height="595.28px" viewBox="0 0 841.89 595.28" enable-background="new 0 0 841.89 595.28" xml:space="preserve">
<g>
	<g>
		<path fill="#0078BF" d="M476.055,214.638c-0.58-5.098-2.627-9.619-6.263-13.841c-3.398-4.102-9.379-7.638-18.301-10.811
			c-4.136-1.502-7.707-2.268-10.593-2.268c-4.143,0-7.072,1.522-8.914,4.622c-2.918,5.11-3.06,11.613,0.846,17.693
			c1.048,1.697,3.524,5.6,5.528,7.9c2.663,3.062,4.013,7.208,5.263,11.442c0.893,4.055,1.5,8.716,0.901,12.901
			c-0.771,4.332-5.263,14.286-7.629,15.865c-7.441,4.985-7.001,12.829-6.484,16.75c1.012,7.91,4.516,12.778,10.251,14.929
			c9.471,3.304,16.193,1.182,19.936-6.327c3.85-7.828,7.111-18.467,9.712-31.627c1.386-7.408,2.882-14.165,4.434-20.082
			C476.197,225.652,476.639,219.881,476.055,214.638"/>
		<path fill="#0078BF" d="M475.3,199.814c2.147,0.538,3.453-0.545,3.866-3.264c0.258-1.629-0.75-2.795-2.977-3.453
			c-0.357-0.056-0.71-0.085-1.027-0.085c-1.98,0-3.041,1.113-3.156,3.293C472.006,198.167,473.022,199.248,475.3,199.814"/>
		<path fill="#0078BF" d="M469.312,185.104c-0.878-0.435-1.651-0.657-2.321-0.657c-1.43,0-2.445,1.019-3.104,3.088
			c-0.567,2.403,0.278,4.105,2.449,4.914c2.444,0.96,4.199,0.064,5.469-2.764C472.609,187.666,471.827,186.214,469.312,185.104"/>
		<path fill="#0078BF" d="M457.781,177.695c-1.75,0-2.758,1.197-3.186,3.774c-0.549,2.854,0.424,4.656,2.996,5.666
			c2.599,0.681,4.211-0.684,5.056-4.344c0.655-2.381-0.302-3.893-3.028-4.75C458.933,177.812,458.318,177.695,457.781,177.695"/>
		<path fill="#0078BF" d="M434.803,165.514c-2.246,0.062-3.374,0.669-4.322,1.828c-1.063,1.274-1.861,3.332-1.404,6.023l0.762,5.55
			c0.697,3.342,3.106,4.957,6.719,4.957c2.473,0,5.282-1.712,5.422-5.316v-7.184c-0.719-3.844-2.913-5.864-6.699-5.864
			C435.12,165.508,434.957,165.508,434.803,165.514"/>
		<path fill="#0078BF" d="M447.844,183.289c2.715,0.543,4.5-1.248,5.354-5.302c0.277-3.389-0.825-5.142-3.573-5.697
			c-0.316-0.067-0.63-0.104-0.924-0.104c-0.826,0-1.584,0.265-2.206,0.792c-1.017,0.721-1.668,2.433-1.934,5.068
			C444.28,181.12,445.383,182.882,447.844,183.289"/>
		<path fill="#0078BF" d="M404.81,229.037c2.002-2.295,4.491-6.203,5.528-7.901c3.91-6.072,3.763-12.578,0.848-17.683
			c-1.854-3.112-4.769-4.63-8.912-4.63c-2.885,0-6.449,0.769-10.599,2.276c-8.92,3.159-14.903,6.7-18.3,10.803
			c-3.635,4.221-5.684,8.751-6.263,13.841c-0.587,5.249-0.143,11.018,1.322,17.148c1.546,5.913,3.041,12.674,4.425,20.08
			c2.602,13.159,5.872,23.803,9.709,31.636c3.752,7.504,10.462,9.618,19.946,6.319c5.729-2.146,9.226-7.011,10.253-14.931
			c0.508-3.921,0.943-11.768-6.495-16.743c-2.37-1.585-6.861-11.533-7.626-15.867c-0.602-4.188,0.006-8.852,0.901-12.9
			C400.807,236.243,402.141,232.105,404.81,229.037"/>
		<path fill="#0078BF" d="M367.871,210.921c2.272-0.565,3.287-1.651,3.287-3.508c-0.111-2.181-1.172-3.296-3.153-3.296
			c-0.324,0-0.665,0.029-1.028,0.087c-2.229,0.655-3.233,1.824-2.971,3.451C364.417,210.374,365.716,211.457,367.871,210.921"/>
		<path fill="#0078BF" d="M376.831,203.556c2.177-0.81,3.017-2.507,2.455-4.919c-0.665-2.07-1.681-3.082-3.102-3.082
			c-0.675,0-1.455,0.214-2.324,0.657c-2.518,1.111-3.298,2.566-2.499,4.586C372.638,203.619,374.39,204.51,376.831,203.556"/>
		<path fill="#0078BF" d="M385.572,198.233c2.576-1.006,3.542-2.808,2.997-5.66c-0.427-2.572-1.441-3.776-3.177-3.776
			c-0.54,0-1.155,0.118-1.838,0.347c-2.73,0.863-3.691,2.371-3.032,4.749C381.371,197.551,382.979,198.92,385.572,198.233"/>
		<path fill="#0078BF" d="M407.886,176.615c-3.781,0-5.978,2.02-6.695,5.864v7.18c0.139,3.608,2.946,5.32,5.423,5.32
			c3.605,0,6.021-1.615,6.714-4.957l0.768-5.55c0.454-2.691-0.345-4.747-1.407-6.025c-0.948-1.161-2.073-1.764-4.318-1.824
			C408.207,176.615,408.048,176.615,407.886,176.615"/>
		<path fill="#0078BF" d="M395.334,194.392c2.449-0.403,3.548-2.167,3.271-5.243c-0.271-2.633-0.919-4.344-1.931-5.064
			c-0.619-0.525-1.379-0.793-2.203-0.793c-0.292,0-0.609,0.034-0.925,0.107c-2.752,0.553-3.852,2.308-3.57,5.697
			C390.821,193.149,392.611,194.937,395.334,194.392"/>
	</g>
	<g>
		<path fill="#0078BF" d="M356.298,327.376c-2.359,0-4.511,0.425-6.461,1.246c-1.951,0.837-3.624,1.965-5.017,3.401
			c-1.403,1.449-2.492,3.123-3.282,5.028c-0.782,1.901-1.175,3.949-1.175,6.132v0.087c0,2.184,0.393,4.23,1.175,6.156
			c0.79,1.921,1.879,3.579,3.282,4.992c1.393,1.417,3.052,2.528,4.975,3.343c1.915,0.813,3.994,1.227,6.243,1.227
			c1.48,0,2.819-0.132,4.01-0.37c1.199-0.254,2.296-0.614,3.3-1.099c1.008-0.484,1.924-1.049,2.766-1.723
			c0.847-0.667,1.657-1.421,2.447-2.268l-4.276-4.321c-1.196,1.103-2.391,1.977-3.598,2.624c-1.214,0.635-2.687,0.955-4.435,0.955
			c-1.308,0-2.51-0.254-3.596-0.762c-1.102-0.52-2.03-1.201-2.798-2.079c-0.771-0.868-1.377-1.89-1.812-3.052
			c-0.436-1.167-0.659-2.401-0.659-3.711V343.1c0-1.317,0.223-2.544,0.659-3.699c0.435-1.142,1.05-2.154,1.83-3.027
			c0.783-0.873,1.726-1.56,2.82-2.052c1.089-0.492,2.28-0.746,3.556-0.746c1.546,0,2.929,0.313,4.167,0.917
			c1.236,0.61,2.455,1.451,3.649,2.532l4.279-4.926c-0.699-0.703-1.457-1.349-2.272-1.929c-0.81-0.575-1.699-1.075-2.666-1.48
			c-0.957-0.412-2.026-0.727-3.207-0.965C359.023,327.498,357.719,327.376,356.298,327.376"/>
		<path fill="#0078BF" d="M406.977,358.463l-13.091-30.778h-6.204l-13.089,30.778h6.852l2.792-6.85h12.92l2.796,6.85H406.977z
			 M386.636,345.668l4.064-9.906l4.057,9.906H386.636z"/>
		<polygon fill="#0078BF" points="436.934,352.396 421.689,352.396 421.689,327.896 414.97,327.896 414.97,358.459 436.934,358.459 
					"/>
		<polygon fill="#0078BF" points="445.272,327.903 445.272,358.463 467.229,358.463 467.229,352.396 451.991,352.396 
			451.991,327.903 		"/>
		<polygon fill="#0078BF" points="475.558,358.459 498.788,358.459 498.788,352.475 482.198,352.475 482.198,346.068 
			496.593,346.068 496.593,340.084 482.198,340.084 482.198,333.885 498.562,333.885 498.562,327.896 475.558,327.896 		"/>
	</g>
	<g>
		<polygon fill="#0078BF" points="149.742,385.662 137.48,385.662 137.48,441.382 177.523,441.382 177.523,430.241 149.742,430.241 
					"/>
		<path fill="#0078BF" d="M209.84,385.266l-23.88,56.12h12.5l5.096-12.503h23.553l5.098,12.503h12.812l-23.876-56.12H209.84z
			 M207.929,418.06l7.402-18.074l7.402,18.074H207.929z"/>
		<path fill="#0078BF" d="M279.414,408.031c-9.635-2.469-12.018-3.664-12.018-7.323v-0.159c0-2.715,2.466-4.857,7.158-4.857
			c4.697,0,9.555,2.067,14.488,5.493l6.37-9.231c-5.648-4.537-12.573-7.089-20.691-7.089c-11.389,0-19.509,6.688-19.509,16.8v0.154
			c0,11.069,7.246,14.178,18.466,17.031c9.313,2.39,11.231,3.988,11.231,7.088v0.159c0,3.271-3.028,5.255-8.043,5.255
			c-6.366,0-11.621-2.632-16.635-6.763l-7.251,8.68c6.691,5.97,15.213,8.91,23.65,8.91c12.016,0,20.454-6.211,20.454-17.272v-0.159
			C297.083,415.035,290.713,410.975,279.414,408.031"/>
		<polygon fill="#0078BF" points="395.318,441.382 395.318,385.662 382.098,385.662 367.451,409.225 352.808,385.662 
			339.587,385.662 339.587,441.382 351.615,441.382 351.615,405.236 367.137,428.804 367.451,428.804 383.138,405.01 
			383.138,441.382 		"/>
		<path fill="#0078BF" d="M469.418,413.516v-0.151c0-15.84-12.33-28.663-29.523-28.663c-17.194,0-29.688,12.975-29.688,28.814v0.162
			c0,15.841,12.335,28.663,29.525,28.663C456.929,442.341,469.418,429.367,469.418,413.516 M456.604,413.678
			c0,9.562-6.839,17.356-16.709,17.356c-9.871,0-16.874-7.958-16.874-17.519v-0.151c0-9.558,6.849-17.355,16.712-17.355
			c9.869,0,16.871,7.957,16.871,17.507V413.678z"/>
		<polygon fill="#0078BF" points="521.729,419.969 495.612,385.662 484.318,385.662 484.318,441.386 496.414,441.386 
			496.414,405.954 523.398,441.386 533.828,441.386 533.828,385.662 521.729,385.662 		"/>
		<path fill="#0078BF" d="M571,421.563c0,6.443-2.868,9.232-7.48,9.232c-3.896,0-7.017-2.072-10.196-5.572l-7.719,8.593
			c3.821,4.544,9.562,8.358,18.233,8.358c6.044,0,11.068-1.742,14.485-5.171c3.347-3.339,5.251-8.28,5.251-14.885v-36.461H571
			V421.563z"/>
		<path fill="#0078BF" d="M617.167,385.266l-23.878,56.12h12.499l5.101-12.503h23.559l5.092,12.503h12.812l-23.876-56.12H617.167z
			 M615.262,418.06l7.405-18.074l7.402,18.074H615.262z"/>
		<path fill="#0078BF" d="M686.744,408.031c-9.628-2.469-12.018-3.664-12.018-7.323v-0.159c0-2.715,2.469-4.857,7.156-4.857
			c4.698,0,9.561,2.067,14.494,5.493l6.37-9.231c-5.655-4.537-12.577-7.089-20.693-7.089c-11.387,0-19.512,6.688-19.512,16.8v0.154
			c0,11.069,7.255,14.178,18.472,17.031c9.311,2.39,11.224,3.988,11.224,7.088v0.159c0,3.271-3.024,5.255-8.036,5.255
			c-6.371,0-11.629-2.632-16.639-6.763l-7.247,8.68c6.688,5.97,15.208,8.91,23.644,8.91c12.017,0,20.45-6.211,20.45-17.272v-0.159
			C704.409,415.035,698.051,410.975,686.744,408.031"/>
	</g>
	<g>
		<path fill="#0078BF" d="M361.075,476.085h-5.078v22.924h5.052c2.379,0,4.068-0.596,5.066-1.802
			c1.002-1.191,1.504-3.052,1.504-5.569v-9.005c0-2.401-0.49-4.091-1.474-5.071C365.157,476.581,363.468,476.085,361.075,476.085
			 M364.347,490.816v0.5c0,0.684-0.006,1.172-0.012,1.5c-0.006,0.317-0.042,0.719-0.091,1.215c-0.062,0.492-0.153,0.862-0.294,1.095
			c-0.133,0.238-0.323,0.484-0.559,0.748c-0.238,0.262-0.553,0.432-0.937,0.539c-0.387,0.091-0.845,0.139-1.379,0.139h-1.802
			v-18.006h1.734c0.363,0,0.685,0.02,0.979,0.079c0.288,0.043,0.543,0.095,0.754,0.171c0.223,0.071,0.413,0.186,0.583,0.329
			c0.159,0.149,0.304,0.289,0.421,0.429c0.117,0.135,0.206,0.329,0.284,0.575c0.076,0.246,0.141,0.456,0.183,0.651
			c0.04,0.205,0.065,0.463,0.091,0.801c0.021,0.342,0.034,0.627,0.04,0.873c0,0.254,0.006,0.58,0.006,0.996V490.816z"/>
		<polygon fill="#0078BF" points="371.799,499.009 380.8,499.009 380.8,496.552 375.067,496.552 375.067,488.372 379.163,488.372 
			379.163,485.911 375.067,485.911 375.067,478.546 380.8,478.546 380.8,476.085 371.799,476.085 		"/>
		<path fill="#0078BF" d="M389.271,478.546c0.976,0,1.718,0.313,2.23,0.943c0.508,0.62,0.83,1.453,0.982,2.496
			c0.031,0.295,0.052,0.5,0.058,0.647l3.282-0.821c-0.038-0.314-0.065-0.561-0.096-0.738c-0.258-1.663-0.934-2.937-2.026-3.857
			c-1.099-0.904-2.572-1.354-4.431-1.354c-1.734,0-3.12,0.488-4.167,1.492c-1.048,1-1.578,2.346-1.578,4.028
			c0,1.163,0.224,2.191,0.676,3.101c0.441,0.908,1.042,1.658,1.798,2.246l4.088,3.27c0.385,0.31,0.684,0.563,0.907,0.778
			c0.224,0.218,0.472,0.496,0.744,0.833c0.27,0.35,0.474,0.723,0.609,1.14c0.135,0.409,0.193,0.856,0.193,1.349
			c0,1.636-0.82,2.453-2.453,2.453c-2.02,0-3.11-1.635-3.271-4.91l-3.278,0.822c0.133,2.092,0.738,3.747,1.824,4.961
			c1.09,1.211,2.663,1.813,4.725,1.813c1.744,0,3.145-0.472,4.173-1.421c1.042-0.939,1.562-2.266,1.562-3.938
			c0-2.459-1.094-4.56-3.282-6.329l-4.088-3.271c-1.091-0.878-1.636-1.957-1.636-3.238c0-0.787,0.208-1.397,0.636-1.838
			C387.88,478.771,388.488,478.546,389.271,478.546"/>
		<path fill="#0078BF" d="M404.605,476.085h-5.082v22.924h5.055c2.377,0,4.07-0.596,5.068-1.802
			c0.999-1.191,1.504-3.052,1.504-5.569v-9.005c0-2.401-0.492-4.091-1.477-5.071S406.992,476.085,404.605,476.085 M407.873,490.816
			v0.5c0,0.684-0.006,1.172-0.012,1.5c-0.006,0.317-0.042,0.719-0.089,1.215c-0.064,0.492-0.155,0.862-0.294,1.095
			c-0.131,0.238-0.325,0.484-0.558,0.748c-0.24,0.262-0.554,0.432-0.94,0.539c-0.381,0.091-0.846,0.139-1.375,0.139h-1.803v-18.006
			h1.732c0.364,0,0.686,0.02,0.978,0.079c0.286,0.043,0.546,0.095,0.754,0.171c0.227,0.071,0.416,0.186,0.582,0.329
			c0.16,0.149,0.306,0.289,0.421,0.429c0.119,0.135,0.21,0.329,0.288,0.575s0.139,0.456,0.18,0.651
			c0.044,0.205,0.072,0.463,0.089,0.801c0.024,0.342,0.036,0.627,0.042,0.873c0,0.254,0.006,0.58,0.006,0.996V490.816z"/>
		<polygon fill="#0078BF" points="415.323,499.009 424.332,499.009 424.332,496.552 418.599,496.552 418.599,488.372 
			422.691,488.372 422.691,485.911 418.599,485.911 418.599,478.546 424.332,478.546 424.332,476.085 415.323,476.085 		"/>
		<path fill="#0078BF" d="M433.453,478.546v2.447h2.452v18.011h3.278v-22.911h-2.457
			C436.191,477.141,435.096,477.958,433.453,478.546"/>
		<path fill="#0078BF" d="M453.904,478.993c-0.311-0.639-0.675-1.189-1.119-1.654c-0.428-0.457-0.969-0.822-1.615-1.084
			c-0.632-0.262-1.35-0.393-2.132-0.393c-1.008,0-1.89,0.199-2.636,0.595c-0.754,0.394-1.345,0.949-1.793,1.651
			c-0.441,0.711-0.771,1.517-0.98,2.4c-0.219,0.897-0.321,1.874-0.321,2.949c0,0.98,0.083,1.858,0.246,2.624
			c0.155,0.754,0.417,1.448,0.785,2.052c0.358,0.607,0.866,1.068,1.521,1.397c0.663,0.317,1.444,0.468,2.365,0.468
			c1.528,0,2.619-0.547,3.267-1.627v3.27c0,3.275-0.817,4.91-2.453,4.91c-0.929,0-1.575-0.271-1.925-0.817
			c-0.356-0.548-0.535-1.366-0.535-2.461h-3.271c0,1.89,0.5,3.358,1.48,4.405c0.992,1.036,2.401,1.56,4.25,1.56
			c0.858,0,1.624-0.151,2.29-0.452c0.675-0.29,1.223-0.695,1.647-1.211c0.421-0.52,0.777-1.131,1.052-1.853
			c0.273-0.742,0.46-1.496,0.58-2.294c0.099-0.803,0.158-1.667,0.158-2.608v-7.362c0-0.841-0.067-1.631-0.211-2.369
			C454.429,480.339,454.202,479.645,453.904,478.993 M451.491,485.911c-0.591,1.092-1.409,1.64-2.453,1.64
			c-0.238,0-0.46-0.021-0.663-0.063c-0.213-0.049-0.384-0.111-0.539-0.219c-0.154-0.111-0.294-0.206-0.412-0.305
			c-0.116-0.112-0.227-0.246-0.311-0.449c-0.087-0.179-0.166-0.35-0.227-0.488c-0.055-0.143-0.114-0.354-0.138-0.611
			c-0.056-0.242-0.079-0.453-0.104-0.623c-0.02-0.163-0.035-0.405-0.047-0.71c-0.008-0.306-0.02-0.54-0.02-0.711v-0.73
			c0-0.535,0.039-1.035,0.115-1.488c0.079-0.456,0.201-0.897,0.385-1.306c0.171-0.409,0.425-0.726,0.758-0.956
			c0.326-0.23,0.734-0.345,1.202-0.345c0.469,0,0.866,0.114,1.203,0.345c0.333,0.23,0.587,0.547,0.754,0.956
			c0.175,0.408,0.306,0.842,0.39,1.302c0.075,0.441,0.106,0.949,0.106,1.492V485.911z"/>
		<path fill="#0078BF" d="M467.104,486.907c0.738-0.556,1.271-1.234,1.616-2.044c0.353-0.802,0.516-1.821,0.516-3.04
			c0-1.894-0.44-3.357-1.342-4.394c-0.904-1.052-2.247-1.575-4.04-1.575c-1.794,0-3.151,0.523-4.056,1.563
			c-0.897,1.036-1.358,2.504-1.358,4.405c0,1.211,0.183,2.227,0.528,3.036c0.35,0.81,0.896,1.492,1.627,2.048
			c-0.869,0.553-1.5,1.27-1.894,2.14c-0.392,0.868-0.587,1.996-0.587,3.425c0,2.184,0.449,3.865,1.365,5.024
			c0.897,1.163,2.361,1.746,4.374,1.746c2.008,0,3.461-0.583,4.362-1.746c0.9-1.159,1.364-2.841,1.364-5.024
			c0-1.401-0.202-2.539-0.591-3.413C468.593,488.188,467.971,487.468,467.104,486.907 M463.854,478.546
			c1.364,0,2.048,1.091,2.048,3.277c0,0.509-0.024,0.949-0.071,1.321c-0.044,0.386-0.136,0.75-0.274,1.124
			c-0.135,0.372-0.35,0.654-0.627,0.849c-0.286,0.199-0.65,0.294-1.075,0.294c-0.438,0-0.794-0.095-1.075-0.294
			c-0.295-0.194-0.5-0.477-0.636-0.845c-0.14-0.361-0.238-0.73-0.281-1.124c-0.052-0.372-0.075-0.816-0.075-1.325
			C461.787,479.637,462.469,478.546,463.854,478.546 M466.264,493.738c-0.031,0.353-0.092,0.71-0.183,1.095
			c-0.104,0.382-0.234,0.683-0.409,0.917c-0.17,0.219-0.408,0.425-0.719,0.579c-0.302,0.147-0.674,0.223-1.099,0.223
			c-0.429,0-0.786-0.075-1.101-0.215c-0.305-0.158-0.551-0.349-0.713-0.575c-0.183-0.234-0.322-0.535-0.417-0.909
			c-0.099-0.389-0.167-0.75-0.191-1.106c-0.027-0.349-0.047-0.774-0.047-1.274c0-0.555,0.039-1.043,0.11-1.473
			c0.061-0.437,0.175-0.838,0.362-1.229c0.171-0.386,0.429-0.691,0.766-0.901c0.329-0.219,0.746-0.321,1.23-0.321
			c0.496,0,0.897,0.103,1.23,0.321c0.329,0.21,0.579,0.516,0.762,0.909c0.163,0.384,0.285,0.801,0.349,1.234
			c0.072,0.433,0.1,0.913,0.1,1.46C466.295,492.972,466.287,493.392,466.264,493.738"/>
		<path fill="#0078BF" d="M483.285,485.015c0.58-0.834,0.866-1.897,0.866-3.203c0-1.873-0.484-3.346-1.465-4.39
			c-0.98-1.04-2.401-1.56-4.259-1.56c-1.854,0-3.258,0.52-4.254,1.567c-0.977,1.056-1.477,2.517-1.477,4.382v0.821h3.274
			c0-0.512,0.008-0.937,0.051-1.306c0.027-0.369,0.087-0.734,0.19-1.104c0.096-0.377,0.23-0.678,0.4-0.9
			c0.163-0.227,0.401-0.413,0.711-0.561c0.311-0.15,0.675-0.217,1.104-0.217c0.916,0,1.56,0.273,1.912,0.825
			c0.366,0.551,0.541,1.364,0.541,2.44c0,1.211-0.246,2.056-0.734,2.552c-0.5,0.488-1.35,0.734-2.537,0.734v3.274
			c1.172,0,2.006,0.35,2.514,1.059c0.496,0.703,0.758,1.719,0.758,3.025c0,0.523-0.016,0.949-0.039,1.31
			c-0.037,0.368-0.097,0.742-0.199,1.11c-0.1,0.382-0.223,0.676-0.397,0.905c-0.175,0.227-0.413,0.409-0.714,0.556
			c-0.31,0.147-0.68,0.215-1.104,0.215c-0.429,0-0.793-0.067-1.104-0.215c-0.31-0.146-0.548-0.329-0.711-0.556
			c-0.17-0.229-0.305-0.523-0.4-0.905c-0.104-0.368-0.163-0.742-0.19-1.11c-0.043-0.36-0.051-0.786-0.051-1.31h-3.274v0.825
			c0,1.882,0.492,3.351,1.469,4.39c0.988,1.044,2.4,1.567,4.262,1.567c1.984,0,3.43-0.595,4.354-1.773
			c0.917-1.191,1.37-2.858,1.37-5.009c0-1.496-0.282-2.746-0.829-3.723c-0.564-0.977-1.37-1.647-2.441-2.004
			C481.904,486.415,482.702,485.848,483.285,485.015"/>
	</g>
	<g>
		<path fill="#0078BF" d="M290.563,210.884l-9.496-5.563l3.098-5.299c4.166-7.096,3.711-15.014-3.616-19.308l-0.091-0.054
			c-6.463-3.79-13.617-1.845-18.039,5.695l-7.579,12.935l31.636,18.558L290.563,210.884z M278.11,196.169l-3.236,5.515l-9.674-5.676
			l3.149-5.376c2.042-3.48,4.995-4.669,8.112-2.842l0.089,0.06C279.261,189.433,280.148,192.689,278.11,196.169"/>
		<path fill="#0078BF" d="M318.834,148.429c-7.257-7.466-18.952-7.865-27.06,0.014c-8.116,7.878-8.07,19.721-0.818,27.2l0.076,0.074
			c7.255,7.471,18.951,7.868,27.056-0.014c8.12-7.876,8.07-19.717,0.815-27.201L318.834,148.429z M312.988,170.3
			c-4.654,4.515-11.605,3.969-15.98-0.538l-0.068-0.069c-4.381-4.508-4.729-11.327-0.071-15.85
			c4.661-4.522,11.619-3.977,15.987,0.542l0.073,0.067C317.305,158.962,317.646,165.778,312.988,170.3"/>
		<path fill="#0078BF" d="M359.539,125.683l-0.05-0.102c-4.786-9.14-15.524-12.452-25.731-7.106l-12.679,6.638l17.024,32.501
			l12.676-6.634C360.996,145.626,364.33,134.827,359.539,125.683 M341.877,147.414l-10.266-19.584l5.525-2.896
			c5.85-3.068,11.908-1.099,14.933,4.661l0.045,0.096c3.014,5.749,1.133,11.77-4.717,14.837L341.877,147.414z"/>
		<path fill="#0078BF" d="M369.939,121.883c2.033,10.212,11.637,16.896,22.73,14.685c11.095-2.208,17.491-12.177,15.457-22.396
			l-0.024-0.104c-2.032-10.22-11.637-16.903-22.729-14.703c-11.095,2.207-17.491,12.186-15.457,22.406L369.939,121.883z
			 M386.72,106.682c6.37-1.268,11.913,2.967,13.137,9.131l0.018,0.107c1.226,6.166-2.189,12.074-8.561,13.335
			c-6.362,1.27-11.9-2.969-13.129-9.125l-0.021-0.109C376.942,113.865,380.352,107.95,386.72,106.682"/>
		<polygon fill="#0078BF" points="446.201,127.007 427.956,125.818 429.869,96.557 421.812,96.033 419.431,132.623 445.729,134.327 
					"/>
		<path fill="#0078BF" d="M467.128,140.892c10.765,3.495,21.222-2.09,24.444-12.002l0.028-0.103
			c3.211-9.922-1.894-20.45-12.657-23.942c-10.771-3.495-21.233,2.089-24.448,12.002l-0.031,0.104
			C451.241,126.871,456.357,137.398,467.128,140.892 M462.529,119.454l0.031-0.098c1.928-5.979,7.794-9.476,13.99-7.468
			c6.175,2.007,8.938,8.408,7,14.388l-0.031,0.105c-1.941,5.977-7.811,9.471-13.981,7.475
			C463.347,131.837,460.58,125.435,462.529,119.454"/>
		<path fill="#0078BF" d="M506.631,160.472c5.544,3.772,11.291,4.536,16.216,4.026l8.97-13.161l-13.152-8.979l-3.93,5.758
			l6.707,4.584l-2.947,4.324c-2.514,0.055-5.097-0.814-7.51-2.469c-5.379-3.656-6.41-10.317-2.615-15.859l0.052-0.085
			c3.508-5.151,10.282-6.809,15.129-3.508c3.5,2.395,4.813,4.935,5.821,8.479l7.645-2.202c-1.313-4.836-3.604-8.551-9.061-12.268
			c-9.18-6.263-20.698-3.781-26.564,4.83l-0.059,0.089C495.225,142.987,497.197,154.032,506.631,160.472"/>
		<polygon fill="#0078BF" points="531.605,181.445 557.991,155.957 552.379,150.156 525.998,175.635 		"/>
		<path fill="#0078BF" d="M558.515,204.315l-5.155,7.233l4.525,7.132l22.756-33.066l-3.977-6.283l-39.609,6.523l4.406,6.941
			l8.744-1.574L558.515,204.315z M570.43,187.577l-7.45,10.487l-5.211-8.225L570.43,187.577z"/>
	</g>
</g>
</svg>
