<?xml version="1.0" encoding="utf-8"?>
<!-- Generator: Adobe Illustrator 16.0.0, SVG Export Plug-In . SVG Version: 6.00 Build 0)  -->
<!DOCTYPE svg PUBLIC "-//W3C//DTD SVG 1.1//EN" "http://www.w3.org/Graphics/SVG/1.1/DTD/svg11.dtd">
<svg version="1.1" id="LOGO" xmlns="http://www.w3.org/2000/svg" xmlns:xlink="http://www.w3.org/1999/xlink" x="0px" y="0px"
	 width="115.239px" height="136.926px" viewBox="363.965 165.508 115.239 136.926"
	 enable-background="new 363.965 165.508 115.239 136.926" xml:space="preserve">
<g>
	<path fill="#0078BF" d="M476.054,214.638c-0.58-5.098-2.627-9.619-6.262-13.841c-3.398-4.102-9.379-7.638-18.301-10.811
		c-4.137-1.502-7.707-2.268-10.594-2.268c-4.143,0-7.072,1.522-8.914,4.622c-2.918,5.11-3.061,11.613,0.846,17.693
		c1.049,1.697,3.523,5.6,5.529,7.9c2.662,3.062,4.012,7.208,5.262,11.442c0.893,4.055,1.5,8.716,0.902,12.901
		c-0.771,4.332-5.264,14.286-7.631,15.865c-7.439,4.985-7,12.829-6.482,16.75c1.012,7.91,4.516,12.778,10.25,14.929
		c9.471,3.304,16.193,1.182,19.936-6.327c3.852-7.828,7.111-18.467,9.713-31.627c1.387-7.408,2.883-14.165,4.434-20.082
		C476.197,225.652,476.638,219.881,476.054,214.638"/>
	<path fill="#0078BF" d="M475.3,199.814c2.146,0.538,3.453-0.545,3.865-3.264c0.258-1.629-0.75-2.795-2.977-3.453
		c-0.357-0.056-0.711-0.085-1.027-0.085c-1.98,0-3.041,1.113-3.156,3.293C472.005,198.167,473.021,199.248,475.3,199.814"/>
	<path fill="#0078BF" d="M469.312,185.104c-0.879-0.435-1.65-0.657-2.32-0.657c-1.432,0-2.445,1.019-3.105,3.088
		c-0.566,2.403,0.279,4.105,2.449,4.914c2.445,0.96,4.199,0.063,5.469-2.764C472.609,187.666,471.828,186.214,469.312,185.104"/>
	<path fill="#0078BF" d="M457.781,177.695c-1.75,0-2.758,1.197-3.186,3.773c-0.549,2.854,0.424,4.656,2.996,5.666
		c2.6,0.681,4.211-0.684,5.055-4.344c0.656-2.381-0.301-3.893-3.027-4.75C458.933,177.812,458.318,177.695,457.781,177.695"/>
	<path fill="#0078BF" d="M434.802,165.514c-2.246,0.062-3.373,0.669-4.32,1.828c-1.064,1.274-1.861,3.332-1.404,6.023l0.762,5.55
		c0.697,3.342,3.105,4.957,6.719,4.957c2.473,0,5.281-1.712,5.422-5.316v-7.184c-0.719-3.844-2.912-5.864-6.699-5.864
		C435.121,165.508,434.957,165.508,434.802,165.514"/>
	<path fill="#0078BF" d="M447.843,183.289c2.715,0.543,4.5-1.248,5.355-5.302c0.275-3.389-0.826-5.143-3.574-5.697
		c-0.316-0.067-0.629-0.104-0.924-0.104c-0.826,0-1.584,0.265-2.205,0.792c-1.018,0.721-1.668,2.433-1.936,5.068
		C444.281,181.12,445.382,182.882,447.843,183.289"/>
	<path fill="#0078BF" d="M404.81,229.037c2.003-2.295,4.491-6.203,5.528-7.901c3.91-6.072,3.763-12.578,0.848-17.683
		c-1.854-3.112-4.769-4.63-8.911-4.63c-2.886,0-6.449,0.769-10.6,2.276c-8.92,3.159-14.902,6.7-18.3,10.803
		c-3.635,4.221-5.684,8.751-6.263,13.841c-0.587,5.249-0.144,11.018,1.321,17.148c1.547,5.913,3.041,12.674,4.426,20.08
		c2.602,13.159,5.872,23.803,9.709,31.636c3.752,7.504,10.462,9.618,19.945,6.318c5.729-2.146,9.227-7.01,10.253-14.93
		c0.509-3.921,0.943-11.768-6.495-16.743c-2.369-1.585-6.86-11.533-7.625-15.867c-0.603-4.188,0.006-8.852,0.9-12.9
		C400.807,236.243,402.141,232.105,404.81,229.037"/>
	<path fill="#0078BF" d="M367.871,210.921c2.271-0.565,3.287-1.651,3.287-3.508c-0.111-2.181-1.172-3.296-3.153-3.296
		c-0.324,0-0.665,0.029-1.028,0.087c-2.229,0.655-3.232,1.824-2.971,3.451C364.417,210.374,365.716,211.457,367.871,210.921"/>
	<path fill="#0078BF" d="M376.831,203.556c2.177-0.81,3.017-2.507,2.455-4.919c-0.665-2.07-1.681-3.082-3.103-3.082
		c-0.675,0-1.455,0.214-2.323,0.657c-2.519,1.111-3.298,2.566-2.499,4.586C372.638,203.619,374.39,204.51,376.831,203.556"/>
	<path fill="#0078BF" d="M385.572,198.233c2.576-1.006,3.542-2.808,2.997-5.66c-0.428-2.572-1.441-3.776-3.178-3.776
		c-0.54,0-1.154,0.118-1.838,0.347c-2.729,0.863-3.69,2.371-3.032,4.749C381.371,197.551,382.979,198.92,385.572,198.233"/>
	<path fill="#0078BF" d="M407.886,176.615c-3.78,0-5.978,2.02-6.694,5.864v7.18c0.139,3.608,2.945,5.32,5.423,5.32
		c3.604,0,6.021-1.615,6.714-4.957l0.768-5.55c0.454-2.691-0.345-4.747-1.406-6.025c-0.948-1.161-2.073-1.764-4.318-1.824
		C408.207,176.615,408.048,176.615,407.886,176.615"/>
	<path fill="#0078BF" d="M395.334,194.392c2.449-0.403,3.548-2.167,3.271-5.243c-0.271-2.633-0.92-4.344-1.932-5.064
		c-0.619-0.525-1.379-0.793-2.203-0.793c-0.292,0-0.608,0.034-0.925,0.107c-2.752,0.553-3.852,2.308-3.57,5.697
		C390.821,193.149,392.611,194.937,395.334,194.392"/>
</g>
</svg>
